<?xml version="1.0" encoding="utf-8"?>
<svg version="1.1" xmlns="http://www.w3.org/2000/svg" xmlns:xlink="http://www.w3.org/1999/xlink" x="0px" y="0px"
	 viewBox="0 0 848.1 576.3" enable-background="new 0 0 848.1 576.3" xml:space="preserve">
<defs>
	<pattern id="smallGrid" width="8" height="8" patternUnits="userSpaceOnUse">
		<path d="M 8 0 L 0 0 0 8" fill="none" stroke="gray" stroke-width="0.5"/>
	</pattern>
	<pattern id="grid" width="80" height="80" patternUnits="userSpaceOnUse">
		<rect width="80" height="80" fill="url(#smallGrid)"/>
		<path d="M 80 0 L 0 0 0 80" fill="none" stroke="gray" stroke-width="1"/>
	</pattern>
</defs>
<rect width="100%" height="100%" fill="url(#grid)" />
<g id="boat">
	<g>
		<g>
			<path fill="none" stroke="#4D4741" stroke-miterlimit="10" d="M771.4,203.6c5.4,97.6-10,176.7-53.3,230.9"/>
			<path fill="#DA6D5E" stroke="#4D4741" stroke-miterlimit="10" d="M771.4,226.2c35.4-4.1,32.4,24.1,70.8,27.5
				c-41.3,26.5-50.2,2.9-73,27.5C782,264.6,785.8,246.7,771.4,226.2z"/>
		</g>
		<g>
			<rect x="558.7" y="8" fill="#716C67" stroke="#4D4741" stroke-miterlimit="10" width="6.4" height="451"/>
			<path fill="#DA6D5E" stroke="#4D4741" stroke-miterlimit="10" d="M563.2,13.6c21.7-6.5,44.4,2.6,50.6,19.6
				c-15.9-3.7-31.5,2.8-50.1,14.7C572,35,575.4,25.4,563.2,13.6z"/>
		</g>

			<rect x="550.5" y="56.1" transform="matrix(0.9529 -0.3034 0.3034 0.9529 10.5155 184.2412)" fill="#4D4741" width="95.4" height="4.3"/>
		<path fill="#DCD6BC" stroke="#4D4741" stroke-miterlimit="10" d="M565.8,69.3c26,5.5,49.5-0.7,69.5-22.6
			c2.1,66.3,36.4,122.8,100.4,166.1c-76.6-9.5-112.9,2-160,50.9C534.7,193.3,523.6,131.4,565.8,69.3z"/>

			<rect x="546.6" y="231.9" transform="matrix(0.9524 -0.305 0.305 0.9524 -39.9318 214.8649)" fill="#4D4741" width="242.5" height="6.6"/>
		<path fill="#D3CCAB" stroke="#4D4741" stroke-miterlimit="10" d="M579,262.3c66.2,4.1,109.1-3.2,158.3-47.9
			c-17.7,84.5,5.5,186.5,49.1,218.4c-77.3-20.2-136.1-20.4-193.4,0C551.8,379,551.1,319.8,579,262.3z"/>
		<rect x="550.4" y="429.9" fill="#4D4741" width="249.9" height="9.2"/>
	</g>
	<g>
		<path fill="#4D4741" d="M220.7,456.7l3.1,15c0,0-163.2-56.9-179.2-64.1c-16-7.3-36.9-18.9-30-19.9L220.7,456.7z"/>
		<path fill="#4D4741" d="M760.5,474.6H221.9l-2.4-18.8c180.1,3.5,361.4,3.6,543.9,0L760.5,474.6z"/>
		<path fill="#D3CCAB" d="M760.5,485.3c-175.8,4.7-355.3,4.7-538.5,0V474c175.9-4.6,355.3-4.5,538.5,0V485.3z"/>
		<g>
			<path fill="#A35247" d="M285.2,547c139.2,7,279.9,6.9,422.1,0c3.2-2.9,6.4-6,9.5-9.2l-441.3,1.9
				C278.6,542.2,281.9,544.6,285.2,547z"/>
			<path fill="#DA6D5E" d="M760.3,485.3c-182.2,4.1-361.7,4.2-538.3,0c12.9,18.5,30.7,36.6,53.5,54.4l441.3-1.9
				C731.6,522.6,745.5,504.6,760.3,485.3z"/>
		</g>
	</g>
	<g>
		<path fill="none" stroke="#4D4741" stroke-miterlimit="10" d="M82.9,410.5C94.9,199,168.7,91.5,341.1,33"/>
		<path fill="#EAE6D7" stroke="#4D4741" stroke-miterlimit="10" d="M118.5,354.4c19.8-93.7,69.6-241.3,223.1-307.7
			c-32.6,42.5-35.3,95.3,0.5,135.8C202.3,207.9,143.7,297.3,118.5,354.4z"/>
		<path fill="#E3DEC9" stroke="#4D4741" stroke-miterlimit="10" d="M82.9,410.5c60.1-111.4,148-175.1,257.6-189
			c-38.4,43.1-38,98.6-2.1,165.3C246.2,331.6,153.2,363.2,82.9,410.5z"/>
	</g>
	<g>
		<g>
			<rect x="338.9" y="8" fill="#716C67" stroke="#4D4741" stroke-miterlimit="10" width="6.4" height="451"/>
			<path fill="#DA6D5E" stroke="#4D4741" stroke-miterlimit="10" d="M343.5,13.6c25.3-6,41.5-0.9,50.6,19.6
				c-16.4-4.8-32.3,2.4-50.1,14.7C351.4,34.2,355.6,25.4,343.5,13.6z"/>
		</g>

			<rect x="330.4" y="54.3" transform="matrix(0.9529 -0.3034 0.3034 0.9529 0.9802 119.2136)" fill="#4D4741" width="107.4" height="4.3"/>
		<path fill="#DCD6BC" stroke="#4D4741" stroke-miterlimit="10" d="M348.2,69.3c28.2,5.5,53.6-0.7,75.2-22.6
			c2.3,66.3,34.2,119.4,103.5,162.8c-82.9-9.5-117,5.3-167.9,54.2C314.6,193.3,302.5,131.4,348.2,69.3z"/>

			<rect x="327.1" y="233.9" transform="matrix(0.9524 -0.305 0.305 0.9524 -51.2882 146.0722)" fill="#4D4741" width="229.7" height="6.6"/>
		<path fill="#D3CCAB" stroke="#4D4741" stroke-miterlimit="10" d="M359.3,265.3c66.2,4.3,118.5-8.4,167.6-55.8
			c-17.7,89.8,4.6,203.1,48.3,237c-77.3-21.4-144.6-21.7-201.9,0C332.1,389.3,331.3,326.4,359.3,265.3z"/>
		<rect x="330.6" y="443.6" fill="#4D4741" width="254.3" height="9.2"/>
	</g>
</g>
<g id="wave">
	<g>
		<path fill="#FFFFFF" d="M716.6,546.9c5,0.1,8.7-1,10.7-3.9c0,0,5.5,9,17.3,9"/>
		<path fill="#4D4741" d="M716.6,546.9c2-0.3,3.9-0.6,5.7-1.3c0.4-0.2,0.9-0.4,1.3-0.6c0.4-0.2,0.8-0.5,1.1-0.7
			c0.4-0.3,0.7-0.6,1-0.9c0.3-0.3,0.6-0.7,0.8-1l0.7-1.1l0.8,1.1c0.2,0.3,0.5,0.6,0.7,0.9c0.2,0.3,0.5,0.6,0.8,0.9
			c0.5,0.6,1.1,1.1,1.7,1.7c0.6,0.5,1.2,1,1.9,1.5c0.3,0.2,0.7,0.5,1,0.7c0.3,0.2,0.7,0.4,1,0.6c0.3,0.2,0.7,0.4,1.1,0.6
			c0.4,0.2,0.7,0.4,1.1,0.5l1.1,0.5c0.4,0.2,0.8,0.3,1.2,0.4c0.4,0.1,0.8,0.3,1.2,0.4l1.2,0.3c0.4,0.1,0.8,0.2,1.2,0.2l1.3,0.2
			l-1.3,0.1c-0.4,0-0.9,0.1-1.3,0.1l-1.3-0.1c-0.4,0-0.9-0.1-1.3-0.2c-0.4-0.1-0.9-0.1-1.3-0.2l-1.3-0.4c-0.4-0.1-0.8-0.3-1.2-0.4
			c-0.4-0.1-0.8-0.3-1.2-0.5c-0.4-0.2-0.8-0.4-1.2-0.6c-0.4-0.2-0.8-0.4-1.1-0.7c-0.7-0.5-1.4-1-2.1-1.6c-0.7-0.6-1.3-1.2-1.9-1.9
			c-0.3-0.3-0.6-0.7-0.8-1c-0.3-0.4-0.5-0.7-0.8-1.1l1.6,0.1c-0.3,0.4-0.7,0.9-1.1,1.2c-0.4,0.4-0.8,0.7-1.3,1
			c-0.5,0.3-1,0.5-1.5,0.7c-0.5,0.2-1,0.4-1.5,0.5c-1,0.2-2.1,0.3-3.1,0.3C718.6,547.2,717.6,547.1,716.6,546.9z"/>
	</g>
	<g>
		<path fill="#FFFFFF" d="M585.9,551.7c5,0.1,8.7-1,10.7-3.9c0,0,5.5,9,17.3,9"/>
		<path fill="#4D4741" d="M585.9,551.7c2-0.3,3.9-0.6,5.7-1.3c0.4-0.2,0.9-0.4,1.3-0.6c0.4-0.2,0.8-0.5,1.1-0.7
			c0.4-0.3,0.7-0.6,1-0.9c0.3-0.3,0.6-0.7,0.8-1l0.7-1.1l0.8,1.1c0.2,0.3,0.5,0.6,0.7,0.9c0.2,0.3,0.5,0.6,0.8,0.9
			c0.5,0.6,1.1,1.1,1.7,1.7c0.6,0.5,1.2,1,1.9,1.5c0.3,0.2,0.7,0.5,1,0.7c0.3,0.2,0.7,0.4,1,0.6c0.3,0.2,0.7,0.4,1.1,0.6
			c0.4,0.2,0.7,0.4,1.1,0.5l1.1,0.5c0.4,0.2,0.8,0.3,1.2,0.4c0.4,0.1,0.8,0.3,1.2,0.4l1.2,0.3c0.4,0.1,0.8,0.2,1.2,0.2l1.3,0.2
			l-1.3,0.1c-0.4,0-0.9,0.1-1.3,0.1l-1.3-0.1c-0.4,0-0.9-0.1-1.3-0.2c-0.4-0.1-0.9-0.1-1.3-0.2l-1.3-0.4c-0.4-0.1-0.8-0.3-1.2-0.4
			c-0.4-0.1-0.8-0.3-1.2-0.5c-0.4-0.2-0.8-0.4-1.2-0.6c-0.4-0.2-0.8-0.4-1.1-0.7c-0.7-0.5-1.4-1-2.1-1.6c-0.7-0.6-1.3-1.2-1.9-1.9
			c-0.3-0.3-0.6-0.7-0.8-1c-0.3-0.4-0.5-0.7-0.8-1.1l1.6,0.1c-0.3,0.4-0.7,0.9-1.1,1.2c-0.4,0.4-0.8,0.7-1.3,1
			c-0.5,0.3-1,0.5-1.5,0.7c-0.5,0.2-1,0.4-1.5,0.5c-1,0.2-2.1,0.3-3.1,0.3C587.9,551.9,586.9,551.8,585.9,551.7z"/>
	</g>
	<g>
		<path fill="#FFFFFF" d="M605,551.5c5,0.1,8.7-1,10.7-3.9c0,0,5.5,9,17.3,9"/>
		<path fill="#4D4741" d="M605,551.5c2-0.3,3.9-0.6,5.7-1.3c0.4-0.2,0.9-0.4,1.3-0.6c0.4-0.2,0.8-0.5,1.1-0.7c0.4-0.3,0.7-0.6,1-0.9
			c0.3-0.3,0.6-0.7,0.8-1l0.7-1.1l0.8,1.1c0.2,0.3,0.5,0.6,0.7,0.9c0.2,0.3,0.5,0.6,0.8,0.9c0.5,0.6,1.1,1.1,1.7,1.7
			c0.6,0.5,1.2,1,1.9,1.5c0.3,0.2,0.7,0.5,1,0.7c0.3,0.2,0.7,0.4,1,0.6c0.3,0.2,0.7,0.4,1.1,0.6c0.4,0.2,0.7,0.4,1.1,0.5l1.1,0.5
			c0.4,0.2,0.8,0.3,1.2,0.4c0.4,0.1,0.8,0.3,1.2,0.4l1.2,0.3c0.4,0.1,0.8,0.2,1.2,0.2l1.3,0.2l-1.3,0.1c-0.4,0-0.9,0.1-1.3,0.1
			l-1.3-0.1c-0.4,0-0.9-0.1-1.3-0.2c-0.4-0.1-0.9-0.1-1.3-0.2l-1.3-0.4c-0.4-0.1-0.8-0.3-1.2-0.4c-0.4-0.1-0.8-0.3-1.2-0.5
			c-0.4-0.2-0.8-0.4-1.2-0.6c-0.4-0.2-0.8-0.4-1.1-0.7c-0.7-0.5-1.4-1-2.1-1.6c-0.7-0.6-1.3-1.2-1.9-1.9c-0.3-0.3-0.6-0.7-0.8-1
			c-0.3-0.4-0.5-0.7-0.8-1.1l1.6,0.1c-0.3,0.4-0.7,0.9-1.1,1.2c-0.4,0.4-0.8,0.7-1.3,1c-0.5,0.3-1,0.5-1.5,0.7
			c-0.5,0.2-1,0.4-1.5,0.5c-1,0.2-2.1,0.3-3.1,0.3C607,551.8,606,551.6,605,551.5z"/>
	</g>
	<g>
		<path fill="#FFFFFF" d="M540.4,552.4c17.5,0,29.3-13.3,42.5-13.3s11.3,13,3.9,10.5c0.1,10.1-10.5,7.1-10.9,0
			c-4.2,3.5-10.2,4.5-17,4.5"/>
		<path fill="#4D4741" d="M540.4,552.4l2.1-0.2c0.7-0.1,1.4-0.1,2.1-0.3l2-0.3c0.7-0.2,1.3-0.3,2-0.5c0.7-0.2,1.3-0.3,2-0.6l1.9-0.7
			c1.3-0.5,2.6-1,3.8-1.6c1.3-0.5,2.5-1.1,3.7-1.7l3.7-1.9l3.7-1.9c1.3-0.6,2.5-1.2,3.8-1.8c1.3-0.6,2.6-1.1,3.9-1.5
			c1.4-0.4,2.7-0.8,4.2-1l1.1-0.2l1.1-0.1l1.1-0.1l0.3,0c0.1,0,0.1,0,0.2,0l0.1,0l0.5,0c0.3,0,0.7,0,1.1,0.1c0.4,0,0.8,0.1,1.1,0.1
			c0.7,0.1,1.5,0.3,2.2,0.5c0.7,0.2,1.4,0.6,2.1,0.9c0.7,0.4,1.3,0.9,1.8,1.5c1.1,1.2,1.8,2.8,1.7,4.4c0,1.6-0.8,3.4-2.3,4.3
			c-0.7,0.5-1.6,0.7-2.4,0.7c-0.8,0-1.6-0.1-2.4-0.4l1.2-0.9c0,0.4,0,0.8-0.1,1.3c0,0.4-0.1,0.8-0.2,1.3c-0.1,0.4-0.2,0.8-0.4,1.3
			c-0.2,0.4-0.4,0.8-0.6,1.2c-0.2,0.4-0.5,0.8-0.9,1.1c-0.3,0.3-0.8,0.6-1.2,0.8c-0.4,0.2-0.9,0.3-1.4,0.4c-0.5,0.1-0.9,0.1-1.4,0
			c-1.8-0.2-3.4-1.2-4.5-2.5c-0.6-0.7-1-1.4-1.3-2.2c-0.2-0.4-0.3-0.8-0.4-1.2c-0.1-0.4-0.1-0.8-0.1-1.3l1,0.4
			c-0.6,0.5-1.3,0.9-1.9,1.3c-0.3,0.2-0.7,0.4-1,0.5c-0.3,0.2-0.7,0.3-1.1,0.5c-0.7,0.3-1.4,0.5-2.2,0.7c-0.7,0.2-1.5,0.4-2.2,0.5
			c-1.5,0.3-3,0.4-4.5,0.5c-1.5,0.1-3,0-4.5,0c1.5-0.1,3-0.2,4.5-0.4c1.5-0.2,2.9-0.4,4.4-0.8c1.4-0.4,2.8-0.8,4.1-1.5
			c0.3-0.1,0.6-0.3,1-0.5c0.3-0.2,0.6-0.4,0.9-0.6c0.6-0.4,1.2-0.8,1.7-1.3l0.9-0.8l0.1,1.2c0,0.4,0.1,0.7,0.2,1.1
			c0.1,0.3,0.2,0.7,0.3,1c0.3,0.7,0.7,1.3,1.1,1.8c0.9,1,2.3,1.8,3.6,1.9c0.3,0,0.7,0,1,0c0.3-0.1,0.6-0.2,0.9-0.3
			c0.3-0.1,0.5-0.3,0.8-0.5c0.2-0.2,0.4-0.5,0.6-0.7c0.2-0.3,0.3-0.6,0.4-0.9c0.1-0.3,0.2-0.7,0.3-1c0.1-0.3,0.1-0.7,0.1-1.1
			c0-0.4,0-0.7,0-1.1l0.1-1.3l1.2,0.4c1.1,0.4,2.3,0.4,3.2-0.2c0.9-0.6,1.4-1.6,1.4-2.7c0-1.1-0.5-2.2-1.2-3.1
			c-0.8-0.9-1.9-1.5-3.1-1.9c-0.6-0.2-1.2-0.4-1.8-0.5c-0.3-0.1-0.6-0.1-0.9-0.1c-0.3,0-0.6-0.1-1-0.1l-0.5,0l-0.1,0
			c0,0-0.1,0-0.1,0l-0.2,0l-1,0.1l-1,0.1l-1,0.2c-1.3,0.2-2.6,0.5-3.9,0.9c-1.3,0.4-2.6,0.9-3.8,1.4c-5,2.1-9.9,4.7-15.2,6.7
			c-1.3,0.5-2.6,0.9-4,1.4l-2,0.5c-0.7,0.2-1.4,0.3-2,0.4c-0.7,0.1-1.4,0.3-2.1,0.4l-2.1,0.2c-0.3,0-0.7,0.1-1,0.1l-1,0L540.4,552.4
			z"/>
	</g>
	<g>
		<path fill="#FFFFFF" d="M495.1,552.6c9.6-2.5,18.7-7.2,27.1-15.1c1.7,7.5,6.2,9.6,13.3,6.7c0,0,11.7,20.6,39.7,20.6"/>
		<path fill="#4D4741" d="M495.1,552.6c1.2-0.4,2.5-0.8,3.7-1.3c1.2-0.5,2.4-0.9,3.6-1.5c0.6-0.3,1.2-0.5,1.8-0.8
			c0.6-0.3,1.2-0.6,1.7-0.9c1.1-0.6,2.3-1.2,3.4-1.9c1.1-0.7,2.2-1.4,3.3-2.1c0.5-0.4,1.1-0.7,1.6-1.1c0.5-0.4,1.1-0.8,1.6-1.2
			c2-1.6,4-3.3,5.9-5l1.1-1l0.4,1.5l0.3,1c0.1,0.3,0.2,0.7,0.3,1c0.1,0.3,0.3,0.7,0.4,1c0.1,0.3,0.3,0.6,0.5,0.9
			c0.2,0.3,0.4,0.6,0.6,0.8c0.2,0.3,0.4,0.5,0.6,0.7c0.2,0.3,0.5,0.4,0.7,0.6c0.3,0.2,0.5,0.3,0.8,0.5c0.3,0.1,0.6,0.3,0.9,0.3
			c0.3,0.1,0.6,0.2,0.9,0.2c0.3,0,0.6,0.1,1,0.1c0.3,0,0.7,0,1-0.1c0.3,0,0.7-0.1,1-0.2c0.3-0.1,0.7-0.1,1-0.3
			c0.3-0.1,0.7-0.2,1-0.3l1-0.4l0.8-0.3l0.4,0.7c0.5,0.8,1,1.6,1.6,2.3c0.6,0.8,1.2,1.5,1.8,2.2c0.6,0.7,1.3,1.4,1.9,2.1
			c0.7,0.6,1.3,1.4,2.1,2c0.7,0.6,1.4,1.3,2.2,1.8c0.8,0.6,1.5,1.2,2.3,1.7l2.4,1.6c0.8,0.5,1.7,0.9,2.5,1.4
			c0.8,0.5,1.7,0.9,2.6,1.3c0.9,0.4,1.7,0.8,2.6,1.1l2.7,1c0.9,0.3,1.9,0.5,2.8,0.8c0.9,0.3,1.9,0.5,2.8,0.7l2.9,0.5
			c0.9,0.2,1.9,0.2,2.9,0.3l2.9,0.3l-2.9,0c-1,0-2,0-2.9-0.1l-2.9-0.3c-1-0.1-1.9-0.3-2.9-0.5c-1-0.2-1.9-0.4-2.9-0.6l-2.8-0.9
			c-1-0.2-1.8-0.7-2.8-1c-0.9-0.4-1.8-0.7-2.7-1.2c-0.9-0.5-1.8-0.9-2.6-1.4l-2.5-1.6c-0.8-0.5-1.6-1.2-2.4-1.7
			c-0.8-0.6-1.5-1.2-2.3-1.9c-0.8-0.6-1.5-1.3-2.2-2c-0.7-0.7-1.4-1.4-2-2.2c-0.6-0.8-1.3-1.5-1.9-2.3c-0.6-0.8-1.2-1.6-1.7-2.5
			l1.2,0.4l-1.1,0.4c-0.4,0.1-0.8,0.2-1.1,0.4c-0.4,0.1-0.8,0.2-1.2,0.3c-0.4,0.1-0.8,0.2-1.2,0.2c-0.4,0.1-0.8,0.1-1.2,0.1
			c-0.4,0-0.8,0-1.2-0.1c-0.4,0-0.8-0.2-1.2-0.3c-0.4-0.1-0.8-0.3-1.2-0.5c-0.4-0.2-0.8-0.4-1.1-0.7c-0.3-0.3-0.7-0.5-1-0.8
			c-0.3-0.3-0.6-0.6-0.8-1c-0.3-0.3-0.5-0.7-0.7-1c-0.2-0.4-0.4-0.7-0.5-1.1c-0.2-0.4-0.3-0.7-0.4-1.1c-0.1-0.4-0.3-0.7-0.3-1.1
			l-0.3-1.1l1.5,0.5c-1,0.9-2,1.8-3,2.6c-0.5,0.4-1,0.8-1.6,1.2c-0.5,0.4-1.1,0.8-1.6,1.2c-0.5,0.4-1.1,0.7-1.6,1.1
			c-0.5,0.4-1.1,0.7-1.7,1.1c-0.6,0.4-1.1,0.7-1.7,1c-0.6,0.3-1.2,0.6-1.7,0.9c-1.2,0.6-2.4,1.2-3.6,1.7c-0.6,0.3-1.2,0.5-1.8,0.8
			c-0.6,0.3-1.2,0.5-1.8,0.7c-1.2,0.4-2.5,0.8-3.7,1.2C497.7,552,496.4,552.3,495.1,552.6z"/>
	</g>
	<g>
		<path fill="#FFFFFF" d="M562.6,558.1c5,0.1,8.7-1,10.7-3.9c0,0,5.5,9,17.3,9"/>
		<path fill="#4D4741" d="M562.6,558.1c2-0.3,3.9-0.6,5.7-1.3c0.4-0.2,0.9-0.4,1.3-0.6c0.4-0.2,0.8-0.5,1.1-0.7
			c0.4-0.3,0.7-0.6,1-0.9c0.3-0.3,0.6-0.7,0.8-1l0.7-1.1l0.8,1.1c0.2,0.3,0.5,0.6,0.7,0.9c0.2,0.3,0.5,0.6,0.8,0.9
			c0.5,0.6,1.1,1.1,1.7,1.7c0.6,0.5,1.2,1,1.9,1.5c0.3,0.2,0.7,0.5,1,0.7c0.3,0.2,0.7,0.4,1,0.6c0.3,0.2,0.7,0.4,1.1,0.6
			c0.4,0.2,0.7,0.4,1.1,0.5l1.1,0.5c0.4,0.2,0.8,0.3,1.2,0.4c0.4,0.1,0.8,0.3,1.2,0.4l1.2,0.3c0.4,0.1,0.8,0.2,1.2,0.2l1.3,0.2
			l-1.3,0.1c-0.4,0-0.9,0.1-1.3,0.1l-1.3-0.1c-0.4,0-0.9-0.1-1.3-0.2c-0.4-0.1-0.9-0.1-1.3-0.2l-1.3-0.4c-0.4-0.1-0.8-0.3-1.2-0.4
			c-0.4-0.1-0.8-0.3-1.2-0.5c-0.4-0.2-0.8-0.4-1.2-0.6c-0.4-0.2-0.8-0.4-1.1-0.7c-0.7-0.5-1.4-1-2.1-1.6c-0.7-0.6-1.3-1.2-1.9-1.9
			c-0.3-0.3-0.6-0.7-0.8-1c-0.3-0.4-0.5-0.7-0.8-1.1l1.6,0.1c-0.3,0.4-0.7,0.9-1.1,1.2c-0.4,0.4-0.8,0.7-1.3,1
			c-0.5,0.3-1,0.5-1.5,0.7c-0.5,0.2-1,0.4-1.5,0.5c-1,0.2-2.1,0.3-3.1,0.3C564.6,558.3,563.6,558.2,562.6,558.1z"/>
	</g>
	<g>
		<path fill="#FFFFFF" d="M437.1,552c12-3.2,23.4-9,33.9-18.9c2.2,9.4,7.8,12,16.7,8.4c0,0,14.7,25.7,49.6,25.7"/>
		<path fill="#4D4741" d="M437.1,552l2.3-0.8l2.3-0.8c1.5-0.6,3-1.2,4.5-1.8c0.7-0.3,1.5-0.6,2.2-1c0.7-0.4,1.5-0.7,2.2-1.1
			c0.7-0.4,1.4-0.7,2.2-1.1c0.7-0.4,1.4-0.8,2.1-1.2c1.4-0.8,2.8-1.7,4.1-2.6c0.7-0.5,1.3-0.9,2-1.4c0.7-0.5,1.3-0.9,2-1.4
			c0.6-0.5,1.3-1,1.9-1.5c0.6-0.5,1.3-1,1.9-1.6c1.2-1,2.4-2.1,3.6-3.2l1.1-1l0.4,1.5l0.4,1.3c0.1,0.4,0.3,0.8,0.4,1.3
			c0.1,0.4,0.3,0.8,0.5,1.2c0.2,0.4,0.4,0.8,0.6,1.2l0.3,0.6l0.4,0.5c0.2,0.4,0.5,0.7,0.8,1c0.3,0.3,0.6,0.5,0.9,0.8
			c0.3,0.3,0.7,0.4,1,0.6c0.4,0.1,0.7,0.3,1.2,0.4c0.4,0.1,0.8,0.2,1.2,0.2c0.4,0.1,0.8,0.1,1.3,0.1l0.6,0l0.6-0.1
			c0.4,0,0.9-0.1,1.3-0.2c0.4-0.1,0.9-0.2,1.3-0.3c0.4-0.1,0.9-0.2,1.3-0.4l1.3-0.5l0.8-0.3l0.4,0.7c0.6,1,1.3,2,2,2.9
			c0.7,1,1.5,1.9,2.2,2.8c0.8,0.9,1.6,1.8,2.4,2.6c0.9,0.8,1.7,1.7,2.6,2.5c0.9,0.8,1.8,1.6,2.7,2.3c1,0.7,1.9,1.5,2.9,2.1l3,2
			c1,0.6,2.1,1.2,3.1,1.8c1,0.6,2.1,1.1,3.2,1.6c1.1,0.5,2.2,1,3.3,1.4l3.4,1.2c1.1,0.4,2.3,0.6,3.5,0.9c1.2,0.3,2.3,0.7,3.5,0.8
			l3.6,0.6l0.9,0.2l0.9,0.1l1.8,0.1l3.6,0.3l-3.6,0l-1.8,0l-0.9,0L530,567l-3.6-0.4c-1.2-0.1-2.4-0.4-3.6-0.6
			c-1.2-0.3-2.4-0.5-3.6-0.8l-3.5-1.1c-1.2-0.3-2.3-0.9-3.4-1.3c-1.1-0.5-2.3-0.9-3.4-1.5c-1.1-0.6-2.2-1.1-3.3-1.7l-3.1-2
			c-1-0.7-2-1.4-3-2.2c-1-0.7-1.9-1.6-2.9-2.3c-1-0.8-1.8-1.7-2.7-2.5c-0.9-0.9-1.7-1.8-2.5-2.7c-0.8-0.9-1.6-1.9-2.3-2.9
			c-0.8-1-1.5-2-2.1-3.1l1.2,0.4l-1.4,0.5c-0.4,0.2-0.9,0.3-1.4,0.4c-0.5,0.2-0.9,0.2-1.4,0.3c-0.5,0.1-1,0.2-1.5,0.2l-0.7,0.1
			l-0.8,0c-0.5,0-1,0-1.5-0.1c-0.5,0-1-0.2-1.5-0.3c-0.5-0.1-1-0.4-1.5-0.6c-0.4-0.3-0.9-0.5-1.3-0.8c-0.4-0.3-0.8-0.6-1.2-1
			c-0.4-0.4-0.7-0.7-1-1.2l-0.4-0.6l-0.4-0.7c-0.3-0.4-0.5-0.9-0.7-1.3c-0.2-0.5-0.4-0.9-0.5-1.4c-0.1-0.5-0.3-0.9-0.4-1.4l-0.4-1.4
			l1.5,0.5c-1.2,1.1-2.5,2.2-3.7,3.2c-0.6,0.5-1.3,1-1.9,1.5c-0.6,0.5-1.3,1-2,1.5c-0.7,0.5-1.4,0.9-2,1.4c-0.7,0.5-1.4,0.9-2.1,1.3
			c-0.7,0.5-1.4,0.8-2.1,1.3c-0.7,0.4-1.4,0.8-2.2,1.2c-0.7,0.4-1.5,0.8-2.2,1.1c-0.7,0.4-1.5,0.7-2.2,1c-0.7,0.3-1.5,0.6-2.3,1
			c-0.8,0.3-1.5,0.6-2.3,0.9c-1.5,0.6-3.1,1.1-4.7,1.6C440.3,551.2,438.7,551.6,437.1,552z"/>
	</g>
	<g>
		<path fill="#FFFFFF" d="M703.5,547.1c5,0.1,8.7-1,10.7-3.9c0,0,5.5,9,17.3,9"/>
		<path fill="#4D4741" d="M703.5,547.1c2-0.3,3.9-0.6,5.7-1.3c0.4-0.2,0.9-0.4,1.3-0.6c0.4-0.2,0.8-0.5,1.1-0.7
			c0.4-0.3,0.7-0.6,1-0.9c0.3-0.3,0.6-0.7,0.8-1l0.7-1.1l0.8,1.1c0.2,0.3,0.5,0.6,0.7,0.9c0.2,0.3,0.5,0.6,0.8,0.9
			c0.5,0.6,1.1,1.1,1.7,1.7c0.6,0.5,1.2,1,1.9,1.5c0.3,0.2,0.7,0.5,1,0.7c0.3,0.2,0.7,0.4,1,0.6c0.3,0.2,0.7,0.4,1.1,0.6
			c0.4,0.2,0.7,0.4,1.1,0.5l1.1,0.5c0.4,0.2,0.8,0.3,1.2,0.4c0.4,0.1,0.8,0.3,1.2,0.4l1.2,0.3c0.4,0.1,0.8,0.2,1.2,0.2l1.3,0.2
			l-1.3,0.1c-0.4,0-0.9,0.1-1.3,0.1l-1.3-0.1c-0.4,0-0.9-0.1-1.3-0.2c-0.4-0.1-0.9-0.1-1.3-0.2l-1.3-0.4c-0.4-0.1-0.8-0.3-1.2-0.4
			c-0.4-0.1-0.8-0.3-1.2-0.5c-0.4-0.2-0.8-0.4-1.2-0.6c-0.4-0.2-0.8-0.4-1.1-0.7c-0.7-0.5-1.4-1-2.1-1.6c-0.7-0.6-1.3-1.2-1.9-1.9
			c-0.3-0.3-0.6-0.7-0.8-1c-0.3-0.4-0.5-0.7-0.8-1.1l1.6,0.1c-0.3,0.4-0.7,0.9-1.1,1.2c-0.4,0.4-0.8,0.7-1.3,1
			c-0.5,0.3-1,0.5-1.5,0.7c-0.5,0.2-1,0.4-1.5,0.5c-1,0.2-2.1,0.3-3.1,0.3C705.5,547.4,704.5,547.3,703.5,547.1z"/>
	</g>
	<g>
		<path fill="#FFFFFF" d="M633.7,550c9.6-2.5,18.7-7.2,27.1-15.1c1.7,7.5,6.2,9.6,13.3,6.7c0,0,11.7,20.6,39.7,20.6"/>
		<path fill="#4D4741" d="M633.7,550c1.2-0.4,2.5-0.8,3.7-1.3c1.2-0.5,2.4-0.9,3.6-1.5c0.6-0.3,1.2-0.5,1.8-0.8
			c0.6-0.3,1.2-0.6,1.7-0.9c1.1-0.6,2.3-1.2,3.4-1.9c1.1-0.7,2.2-1.4,3.3-2.1c0.5-0.4,1.1-0.7,1.6-1.1c0.5-0.4,1.1-0.8,1.6-1.2
			c2-1.6,4-3.3,5.9-5l1.1-1l0.4,1.5l0.3,1c0.1,0.3,0.2,0.7,0.3,1c0.1,0.3,0.3,0.7,0.4,1c0.1,0.3,0.3,0.6,0.5,0.9
			c0.2,0.3,0.4,0.6,0.6,0.8c0.2,0.3,0.4,0.5,0.6,0.7c0.2,0.3,0.5,0.4,0.7,0.6c0.3,0.2,0.5,0.3,0.8,0.5c0.3,0.1,0.6,0.3,0.9,0.3
			c0.3,0.1,0.6,0.2,0.9,0.2c0.3,0,0.6,0.1,1,0.1c0.3,0,0.7,0,1-0.1c0.3,0,0.7-0.1,1-0.2c0.3-0.1,0.7-0.1,1-0.3
			c0.3-0.1,0.7-0.2,1-0.3l1-0.4l0.8-0.3l0.4,0.7c0.5,0.8,1,1.6,1.6,2.3c0.6,0.8,1.2,1.5,1.8,2.2c0.6,0.7,1.3,1.4,1.9,2.1
			c0.7,0.6,1.3,1.4,2.1,2c0.7,0.6,1.4,1.3,2.2,1.8c0.8,0.6,1.5,1.2,2.3,1.7l2.4,1.6c0.8,0.5,1.7,0.9,2.5,1.4
			c0.8,0.5,1.7,0.9,2.6,1.3c0.9,0.4,1.7,0.8,2.6,1.1l2.7,1c0.9,0.3,1.9,0.5,2.8,0.8c0.9,0.3,1.9,0.5,2.8,0.7l2.9,0.5
			c0.9,0.2,1.9,0.2,2.9,0.3l2.9,0.3l-2.9,0c-1,0-2,0-2.9-0.1l-2.9-0.3c-1-0.1-1.9-0.3-2.9-0.5c-1-0.2-1.9-0.4-2.9-0.6l-2.8-0.9
			c-1-0.2-1.8-0.7-2.8-1c-0.9-0.4-1.8-0.7-2.7-1.2c-0.9-0.5-1.8-0.9-2.6-1.4l-2.5-1.6c-0.8-0.5-1.6-1.2-2.4-1.7
			c-0.8-0.6-1.5-1.2-2.3-1.9c-0.8-0.6-1.5-1.3-2.2-2c-0.7-0.7-1.4-1.4-2-2.2c-0.6-0.8-1.3-1.5-1.9-2.3c-0.6-0.8-1.2-1.6-1.7-2.5
			l1.2,0.4l-1.1,0.4c-0.4,0.1-0.8,0.2-1.1,0.4c-0.4,0.1-0.8,0.2-1.2,0.3c-0.4,0.1-0.8,0.2-1.2,0.2c-0.4,0.1-0.8,0.1-1.2,0.1
			c-0.4,0-0.8,0-1.2-0.1c-0.4,0-0.8-0.2-1.2-0.3c-0.4-0.1-0.8-0.3-1.2-0.5c-0.4-0.2-0.8-0.4-1.1-0.7c-0.3-0.3-0.7-0.5-1-0.8
			c-0.3-0.3-0.6-0.6-0.8-1c-0.3-0.3-0.5-0.7-0.7-1c-0.2-0.4-0.4-0.7-0.5-1.1c-0.2-0.4-0.3-0.7-0.4-1.1c-0.1-0.4-0.3-0.7-0.3-1.1
			l-0.3-1.1l1.5,0.5c-1,0.9-2,1.8-3,2.6c-0.5,0.4-1,0.8-1.6,1.2c-0.5,0.4-1.1,0.8-1.6,1.2c-0.5,0.4-1.1,0.7-1.6,1.1
			c-0.5,0.4-1.1,0.7-1.7,1.1c-0.6,0.4-1.1,0.7-1.7,1c-0.6,0.3-1.2,0.6-1.7,0.9c-1.2,0.6-2.4,1.2-3.6,1.7c-0.6,0.3-1.2,0.5-1.8,0.8
			c-0.6,0.3-1.2,0.5-1.8,0.7c-1.2,0.4-2.5,0.8-3.7,1.2C636.3,549.5,635,549.8,633.7,550z"/>
	</g>
	<g>
		<path fill="#FFFFFF" d="M685.2,548.5c5,0.1,8.7-1,10.7-3.9c0,0,5.5,9,17.3,9"/>
		<path fill="#4D4741" d="M685.2,548.5c2-0.3,3.9-0.6,5.7-1.3c0.4-0.2,0.9-0.4,1.3-0.6c0.4-0.2,0.8-0.5,1.1-0.7
			c0.4-0.3,0.7-0.6,1-0.9c0.3-0.3,0.6-0.7,0.8-1l0.7-1.1l0.8,1.1c0.2,0.3,0.5,0.6,0.7,0.9c0.2,0.3,0.5,0.6,0.8,0.9
			c0.5,0.6,1.1,1.1,1.7,1.7c0.6,0.5,1.2,1,1.9,1.5c0.3,0.2,0.7,0.5,1,0.7c0.3,0.2,0.7,0.4,1,0.6c0.3,0.2,0.7,0.4,1.1,0.6
			c0.4,0.2,0.7,0.4,1.1,0.5l1.1,0.5c0.4,0.2,0.8,0.3,1.2,0.4c0.4,0.1,0.8,0.3,1.2,0.4l1.2,0.3c0.4,0.1,0.8,0.2,1.2,0.2l1.3,0.2
			l-1.3,0.1c-0.4,0-0.9,0.1-1.3,0.1l-1.3-0.1c-0.4,0-0.9-0.1-1.3-0.2c-0.4-0.1-0.9-0.1-1.3-0.2l-1.3-0.4c-0.4-0.1-0.8-0.3-1.2-0.4
			c-0.4-0.1-0.8-0.3-1.2-0.5c-0.4-0.2-0.8-0.4-1.2-0.6c-0.4-0.2-0.8-0.4-1.1-0.7c-0.7-0.5-1.4-1-2.1-1.6c-0.7-0.6-1.3-1.2-1.9-1.9
			c-0.3-0.3-0.6-0.7-0.8-1c-0.3-0.4-0.5-0.7-0.8-1.1l1.6,0.1c-0.3,0.4-0.7,0.9-1.1,1.2c-0.4,0.4-0.8,0.7-1.3,1
			c-0.5,0.3-1,0.5-1.5,0.7c-0.5,0.2-1,0.4-1.5,0.5c-1,0.2-2.1,0.3-3.1,0.3C687.2,548.8,686.2,548.7,685.2,548.5z"/>
	</g>
	<g>
		<path fill="#FFFFFF" d="M352.9,567.2c-8.6-1.1-12.9-1.1-18.1-5.9"/>
		<path fill="#4D4741" d="M352.9,567.2c0,0-1.2,0.2-3.1,0.2c-0.5,0-1,0-1.5,0c-0.5,0-1.1,0-1.7-0.1c-1.2-0.1-2.4-0.2-3.6-0.5
			c-1.2-0.3-2.5-0.7-3.5-1.3c-0.5-0.3-1-0.6-1.5-0.9c-0.5-0.3-0.9-0.6-1.2-1c-0.4-0.3-0.7-0.6-0.9-0.9c-0.3-0.3-0.5-0.5-0.6-0.8
			c-0.3-0.4-0.5-0.7-0.5-0.7s0.3,0.1,0.8,0.4c0.5,0.3,1.1,0.6,1.9,1c0.8,0.4,1.7,0.8,2.7,1.2c0.5,0.2,1,0.3,1.6,0.5
			c0.6,0.1,1.1,0.3,1.7,0.4c0.6,0.1,1.1,0.3,1.7,0.4c0.6,0.1,1.1,0.2,1.7,0.4c1.1,0.2,2.1,0.5,3,0.7
			C351.7,566.7,352.9,567.2,352.9,567.2z"/>
	</g>
	<g>
		<path fill="#FFFFFF" d="M250.9,551.2c8.3,0,14.3-6,14.3-6s5.2,2.3,9.9,2.5c14.6,0.5,21.6-31.8,63.1-31.8c31.3,0,29.5,33,15,21.8
			c-7.8,7-14-1-14-1c-6.9,2.5-11.1,0.1-12-8.5c-14.5-1-24.3,12.8-40.3,19.3"/>
		<path fill="#4D4741" d="M250.9,551.2c0.7-0.1,1.3,0,2-0.2l1-0.1l1-0.2c0.3-0.1,0.6-0.2,0.9-0.3c0.3-0.1,0.6-0.2,0.9-0.3l0.9-0.4
			c0.3-0.1,0.6-0.3,0.9-0.4c1.2-0.5,2.3-1.2,3.4-1.9c1.1-0.7,2.1-1.5,3-2.4l0.1-0.1l0.2,0.1c2.5,1,5.2,1.8,7.8,2.2
			c0.7,0.1,1.4,0.1,2,0.1c0.7,0,1.3-0.1,2-0.2c1.3-0.3,2.5-0.8,3.7-1.4c2.3-1.4,4.3-3.2,6.3-5.1c1.9-1.9,3.8-3.9,5.8-5.9
			c3.9-3.9,8.1-7.6,12.8-10.7c4.7-3,9.9-5.3,15.3-6.8c5.4-1.5,11-2.1,16.5-2.2c2.8-0.1,5.6,0.1,8.4,0.7c2.8,0.5,5.5,1.4,8,2.8
			c2.5,1.4,4.8,3.2,6.6,5.5c1.8,2.3,3.1,5,3.6,7.9c0.2,1.5,0.3,3-0.1,4.5c-0.3,1.5-1.2,3-2.7,3.9c-1.5,0.9-3.3,0.8-4.7,0.3
			c-1.5-0.5-2.7-1.3-3.8-2.2l1.1,0c-0.5,0.5-1.1,0.9-1.7,1.3c-0.6,0.4-1.2,0.8-1.9,1c-1.3,0.6-2.8,0.8-4.3,0.7
			c-1.5-0.1-2.9-0.7-4.1-1.4c-0.6-0.4-1.2-0.8-1.7-1.2c-0.3-0.2-0.5-0.5-0.8-0.7c-0.3-0.3-0.5-0.5-0.7-0.8l0.9,0.3
			c-1.5,0.5-3,0.9-4.7,0.9c-0.8,0-1.7-0.1-2.5-0.3c-0.8-0.2-1.6-0.6-2.2-1.2c-1.3-1.1-2.1-2.6-2.6-4.1c-0.5-1.5-0.8-3-0.9-4.6
			l0.6,0.6l-1.4-0.1c-0.5,0-0.9,0-1.4,0c-0.9,0.1-1.8,0.2-2.7,0.3c-0.9,0.2-1.8,0.4-2.7,0.7c-0.9,0.3-1.8,0.6-2.6,0.9
			c-1.7,0.7-3.4,1.6-5,2.5c-1.6,0.9-3.2,1.9-4.8,3c-3.2,2.1-6.3,4.2-9.5,6.2c-3.2,2-6.6,3.7-10.1,5.1c3.5-1.5,6.7-3.4,9.9-5.5
			c3.2-2.1,6.2-4.3,9.3-6.5c3.1-2.2,6.3-4.3,9.8-5.8c0.9-0.4,1.8-0.7,2.7-1c0.9-0.3,1.9-0.5,2.8-0.7c0.9-0.2,1.9-0.3,2.9-0.4
			c0.5,0,1,0,1.5-0.1l1.5,0l0.5,0l0.1,0.6c0.2,1.5,0.4,2.9,0.9,4.2c0.5,1.3,1.2,2.6,2.3,3.4c1,0.8,2.4,1.1,3.8,1.1
			c1.4,0,2.8-0.4,4.1-0.9l0.5-0.2l0.4,0.5c0.2,0.2,0.4,0.4,0.6,0.7c0.2,0.2,0.5,0.4,0.7,0.6c0.5,0.4,1,0.8,1.5,1.1
			c1.1,0.6,2.2,1,3.4,1.1c1.2,0.1,2.4-0.1,3.5-0.6c0.6-0.2,1.1-0.5,1.6-0.9c0.5-0.3,1-0.7,1.5-1.2l0.6-0.5l0.6,0.4
			c1,0.8,2.2,1.5,3.3,1.9c1.2,0.4,2.3,0.4,3.2-0.2c0.9-0.5,1.5-1.6,1.8-2.8c0.3-1.2,0.3-2.5,0-3.7c-0.4-2.5-1.6-4.9-3.2-7
			c-1.6-2-3.7-3.7-6-5c-2.3-1.3-4.8-2.1-7.5-2.7c-1.3-0.3-2.6-0.5-4-0.6c-0.7-0.1-1.3-0.1-2-0.1c-0.7,0-1.4,0-2,0
			c-5.4,0-10.9,0.7-16.1,2c-5.2,1.4-10.2,3.6-14.8,6.4c-2.3,1.4-4.5,3-6.6,4.8c-2.1,1.7-4.1,3.6-6.1,5.5c-2,1.9-3.9,3.9-5.9,5.8
			c-2,1.9-4.1,3.8-6.6,5.2c-1.2,0.7-2.6,1.2-4,1.5c-0.7,0.1-1.5,0.2-2.1,0.1c-0.7,0-1.4-0.1-2.1-0.2c-2.8-0.5-5.4-1.3-8-2.5l0.3-0.1
			c-1,0.9-2.1,1.7-3.2,2.4c-1.1,0.7-2.3,1.3-3.5,1.8c-0.3,0.1-0.6,0.3-0.9,0.4l-0.9,0.3c-0.3,0.1-0.6,0.2-1,0.3
			c-0.3,0.1-0.6,0.2-1,0.2l-1,0.2l-1,0.1C252.2,551.2,251.5,551.1,250.9,551.2z"/>
	</g>
	<g>
		<path fill="#FFFFFF" d="M343.1,550.3c17.5,0,29.3-13.3,42.5-13.3s11.3,13,3.9,10.5c0.1,10.1-10.5,7.1-10.9,0
			c-4.2,3.5-10.2,4.5-17,4.5"/>
		<path fill="#4D4741" d="M343.1,550.3l2.1-0.2c0.7-0.1,1.4-0.1,2.1-0.3l2-0.3c0.7-0.2,1.3-0.3,2-0.5c0.7-0.2,1.3-0.3,2-0.6l1.9-0.7
			c1.3-0.5,2.6-1,3.8-1.6c1.3-0.5,2.5-1.1,3.7-1.7l3.7-1.9l3.7-1.9c1.3-0.6,2.5-1.2,3.8-1.8c1.3-0.6,2.6-1.1,3.9-1.5
			c1.4-0.4,2.7-0.8,4.2-1l1.1-0.2l1.1-0.1l1.1-0.1l0.3,0c0.1,0,0.1,0,0.2,0l0.1,0l0.5,0c0.3,0,0.7,0,1.1,0.1c0.4,0,0.8,0.1,1.1,0.1
			c0.7,0.1,1.5,0.3,2.2,0.5c0.7,0.2,1.4,0.6,2.1,0.9c0.7,0.4,1.3,0.9,1.8,1.5c1.1,1.2,1.8,2.8,1.7,4.4c0,1.6-0.8,3.4-2.3,4.3
			c-0.7,0.5-1.6,0.7-2.4,0.7c-0.8,0-1.6-0.1-2.4-0.4l1.2-0.9c0,0.4,0,0.8-0.1,1.3c0,0.4-0.1,0.8-0.2,1.3c-0.1,0.4-0.2,0.8-0.4,1.3
			c-0.2,0.4-0.4,0.8-0.6,1.2c-0.2,0.4-0.5,0.8-0.9,1.1c-0.3,0.3-0.8,0.6-1.2,0.8c-0.4,0.2-0.9,0.3-1.4,0.4c-0.5,0.1-0.9,0.1-1.4,0
			c-1.8-0.2-3.4-1.2-4.5-2.5c-0.6-0.7-1-1.4-1.3-2.2c-0.2-0.4-0.3-0.8-0.4-1.2c-0.1-0.4-0.1-0.8-0.1-1.3l1,0.4
			c-0.6,0.5-1.3,0.9-1.9,1.3c-0.3,0.2-0.7,0.4-1,0.5c-0.3,0.2-0.7,0.3-1.1,0.5c-0.7,0.3-1.4,0.5-2.2,0.7c-0.7,0.2-1.5,0.4-2.2,0.5
			c-1.5,0.3-3,0.4-4.5,0.5c-1.5,0.1-3,0-4.5,0c1.5-0.1,3-0.2,4.5-0.4c1.5-0.2,2.9-0.4,4.4-0.8c1.4-0.4,2.8-0.8,4.1-1.5
			c0.3-0.1,0.6-0.3,1-0.5c0.3-0.2,0.6-0.4,0.9-0.6c0.6-0.4,1.2-0.8,1.7-1.3l0.9-0.8l0.1,1.2c0,0.4,0.1,0.7,0.2,1.1
			c0.1,0.3,0.2,0.7,0.3,1c0.3,0.7,0.7,1.3,1.1,1.8c0.9,1,2.3,1.8,3.6,1.9c0.3,0,0.7,0,1,0c0.3-0.1,0.6-0.2,0.9-0.3
			c0.3-0.1,0.5-0.3,0.8-0.5c0.2-0.2,0.4-0.5,0.6-0.7c0.2-0.3,0.3-0.6,0.4-0.9c0.1-0.3,0.2-0.7,0.3-1c0.1-0.3,0.1-0.7,0.1-1.1
			c0-0.4,0-0.7,0-1.1l0.1-1.3l1.2,0.4c1.1,0.4,2.3,0.4,3.2-0.2c0.9-0.6,1.4-1.6,1.4-2.7c0-1.1-0.5-2.2-1.2-3.1
			c-0.8-0.9-1.9-1.5-3.1-1.9c-0.6-0.2-1.2-0.4-1.8-0.5c-0.3-0.1-0.6-0.1-0.9-0.1c-0.3,0-0.6-0.1-1-0.1l-0.5,0l-0.1,0
			c0,0-0.1,0-0.1,0l-0.2,0l-1,0.1l-1,0.1l-1,0.2c-1.3,0.2-2.6,0.5-3.9,0.9c-1.3,0.4-2.6,0.9-3.8,1.4c-5,2.1-9.9,4.7-15.2,6.7
			c-1.3,0.5-2.6,0.9-4,1.4l-2,0.5c-0.7,0.2-1.4,0.3-2,0.4c-0.7,0.1-1.4,0.3-2.1,0.4l-2.1,0.2c-0.3,0-0.7,0.1-1,0.1l-1,0L343.1,550.3
			z"/>
	</g>
	<g>
		<path fill="#FFFFFF" d="M297.2,548.2c9.6-2.5,18.7-7.2,27.1-15.1c1.7,7.5,6.2,9.6,13.3,6.7c0,0,11.7,20.6,39.7,20.6"/>
		<path fill="#4D4741" d="M297.2,548.2c1.2-0.4,2.5-0.8,3.7-1.3c1.2-0.5,2.4-0.9,3.6-1.5c0.6-0.3,1.2-0.5,1.8-0.8
			c0.6-0.3,1.2-0.6,1.7-0.9c1.1-0.6,2.3-1.2,3.4-1.9c1.1-0.7,2.2-1.4,3.3-2.1c0.5-0.4,1.1-0.7,1.6-1.1c0.5-0.4,1.1-0.8,1.6-1.2
			c2-1.6,4-3.3,5.9-5l1.1-1l0.4,1.5l0.3,1c0.1,0.3,0.2,0.7,0.3,1c0.1,0.3,0.3,0.7,0.4,1c0.1,0.3,0.3,0.6,0.5,0.9
			c0.2,0.3,0.4,0.6,0.6,0.8c0.2,0.3,0.4,0.5,0.6,0.7c0.2,0.3,0.5,0.4,0.7,0.6c0.3,0.2,0.5,0.3,0.8,0.5c0.3,0.1,0.6,0.3,0.9,0.3
			c0.3,0.1,0.6,0.2,0.9,0.2c0.3,0,0.6,0.1,1,0.1c0.3,0,0.7,0,1-0.1c0.3,0,0.7-0.1,1-0.2c0.3-0.1,0.7-0.1,1-0.3
			c0.3-0.1,0.7-0.2,1-0.3l1-0.4l0.8-0.3l0.4,0.7c0.5,0.8,1,1.6,1.6,2.3c0.6,0.8,1.2,1.5,1.8,2.2c0.6,0.7,1.3,1.4,1.9,2.1
			c0.7,0.6,1.3,1.4,2.1,2c0.7,0.6,1.4,1.3,2.2,1.8c0.8,0.6,1.5,1.2,2.3,1.7l2.4,1.6c0.8,0.5,1.7,0.9,2.5,1.4
			c0.8,0.5,1.7,0.9,2.6,1.3c0.9,0.4,1.7,0.8,2.6,1.1l2.7,1c0.9,0.3,1.9,0.5,2.8,0.8c0.9,0.3,1.9,0.5,2.8,0.7l2.9,0.5
			c0.9,0.2,1.9,0.2,2.9,0.3l2.9,0.3l-2.9,0c-1,0-2,0-2.9-0.1l-2.9-0.3c-1-0.1-1.9-0.3-2.9-0.5c-1-0.2-1.9-0.4-2.9-0.6l-2.8-0.9
			c-1-0.2-1.8-0.7-2.8-1c-0.9-0.4-1.8-0.7-2.7-1.2c-0.9-0.5-1.8-0.9-2.6-1.4l-2.5-1.6c-0.8-0.5-1.6-1.2-2.4-1.7
			c-0.8-0.6-1.5-1.2-2.3-1.9c-0.8-0.6-1.5-1.3-2.2-2c-0.7-0.7-1.4-1.4-2-2.2c-0.6-0.8-1.3-1.5-1.9-2.3c-0.6-0.8-1.2-1.6-1.7-2.5
			l1.2,0.4l-1.1,0.4c-0.4,0.1-0.8,0.2-1.1,0.4c-0.4,0.1-0.8,0.2-1.2,0.3c-0.4,0.1-0.8,0.2-1.2,0.2c-0.4,0.1-0.8,0.1-1.2,0.1
			c-0.4,0-0.8,0-1.2-0.1c-0.4,0-0.8-0.2-1.2-0.3c-0.4-0.1-0.8-0.3-1.2-0.5c-0.4-0.2-0.8-0.4-1.1-0.7c-0.3-0.3-0.7-0.5-1-0.8
			c-0.3-0.3-0.6-0.6-0.8-1c-0.3-0.3-0.5-0.7-0.7-1c-0.2-0.4-0.4-0.7-0.5-1.1c-0.2-0.4-0.3-0.7-0.4-1.1c-0.1-0.4-0.3-0.7-0.3-1.1
			l-0.3-1.1l1.5,0.5c-1,0.9-2,1.8-3,2.6c-0.5,0.4-1,0.8-1.6,1.2c-0.5,0.4-1.1,0.8-1.6,1.2c-0.5,0.4-1.1,0.7-1.6,1.1
			c-0.5,0.4-1.1,0.7-1.7,1.1c-0.6,0.4-1.1,0.7-1.7,1c-0.6,0.3-1.2,0.6-1.7,0.9c-1.2,0.6-2.4,1.2-3.6,1.7c-0.6,0.3-1.2,0.5-1.8,0.8
			c-0.6,0.3-1.2,0.5-1.8,0.7c-1.2,0.4-2.5,0.8-3.7,1.2C299.7,547.7,298.4,548,297.2,548.2z"/>
	</g>
	<g>
		<path fill="#FFFFFF" d="M366.3,556c5,0.1,8.7-1,10.7-3.9c0,0,5.5,9,17.3,9"/>
		<path fill="#4D4741" d="M366.3,556c2-0.3,3.9-0.6,5.7-1.3c0.4-0.2,0.9-0.4,1.3-0.6c0.4-0.2,0.8-0.5,1.1-0.7c0.4-0.3,0.7-0.6,1-0.9
			c0.3-0.3,0.6-0.7,0.8-1l0.7-1.1l0.8,1.1c0.2,0.3,0.5,0.6,0.7,0.9c0.2,0.3,0.5,0.6,0.8,0.9c0.5,0.6,1.1,1.1,1.7,1.7
			c0.6,0.5,1.2,1,1.9,1.5c0.3,0.2,0.7,0.5,1,0.7c0.3,0.2,0.7,0.4,1,0.6c0.3,0.2,0.7,0.4,1.1,0.6c0.4,0.2,0.7,0.4,1.1,0.5l1.1,0.5
			c0.4,0.2,0.8,0.3,1.2,0.4c0.4,0.1,0.8,0.3,1.2,0.4l1.2,0.3c0.4,0.1,0.8,0.2,1.2,0.2l1.3,0.2l-1.3,0.1c-0.4,0-0.9,0.1-1.3,0.1
			l-1.3-0.1c-0.4,0-0.9-0.1-1.3-0.2c-0.4-0.1-0.9-0.1-1.3-0.2l-1.3-0.4c-0.4-0.1-0.8-0.3-1.2-0.4c-0.4-0.1-0.8-0.3-1.2-0.5
			c-0.4-0.2-0.8-0.4-1.2-0.6c-0.4-0.2-0.8-0.4-1.1-0.7c-0.7-0.5-1.4-1-2.1-1.6c-0.7-0.6-1.3-1.2-1.9-1.9c-0.3-0.3-0.6-0.7-0.8-1
			c-0.3-0.4-0.5-0.7-0.8-1.1l1.6,0.1c-0.3,0.4-0.7,0.9-1.1,1.2c-0.4,0.4-0.8,0.7-1.3,1c-0.5,0.3-1,0.5-1.5,0.7
			c-0.5,0.2-1,0.4-1.5,0.5c-1,0.2-2.1,0.3-3.1,0.3C368.3,556.3,367.3,556.2,366.3,556z"/>
	</g>
	<g>
		<path fill="#FFFFFF" d="M269.7,563.8c38.3,0,34.2-17.1,53.2-17.1c16.6,0,15.9,9.9,14.4,12c-4.5,6.2-9.6-0.5-9.6-0.5
			s0.8,4.4-2.6,5.6c-4.6,1.6-5.9-3.6-5.9-3.6s-6,3.4-7-3.5c-5.6,9.8-18.8,7.8-18.8,7.8"/>
		<path fill="#4D4741" d="M269.7,563.8l5.7-0.4c1,0,1.9-0.2,2.8-0.3l2.8-0.3c0.9-0.1,1.9-0.3,2.8-0.5l2.8-0.5
			c0.9-0.2,1.8-0.5,2.7-0.7c0.9-0.3,1.8-0.5,2.7-0.8l2.6-1c0.9-0.4,1.7-0.8,2.5-1.2c0.9-0.4,1.6-0.9,2.5-1.3c0.8-0.4,1.6-1,2.4-1.5
			c1.6-1,3-2.2,4.6-3.4c0.8-0.6,1.6-1.1,2.3-1.7c0.8-0.6,1.7-1.1,2.5-1.6c0.9-0.4,1.8-0.9,2.7-1.3l1.4-0.5c0.5-0.2,0.9-0.3,1.4-0.4
			c1-0.2,1.9-0.4,2.9-0.5l3-0.2l2.9,0.1c1,0.1,2,0.2,3,0.4c1.9,0.4,3.9,1,5.7,2c1.8,1.1,3.3,2.7,4,4.8c0.4,1,0.5,2.1,0.5,3.2
			c-0.1,1.1-0.2,2.2-1.1,3.3l-0.5,0.5c-0.2,0.2-0.3,0.4-0.5,0.6c-0.4,0.4-0.9,0.8-1.4,1c-1,0.6-2.2,0.9-3.4,0.6
			c-1.1-0.2-2.1-0.7-3-1.3c-0.9-0.6-1.6-1.3-2.3-2.2l1.6-0.7c0.1,0.4,0.1,0.7,0.1,1.1c0,0.3,0,0.7,0,1c-0.1,0.7-0.2,1.4-0.5,2
			c-0.1,0.3-0.3,0.7-0.6,0.9c-0.2,0.3-0.5,0.6-0.8,0.8c-0.3,0.2-0.6,0.4-1,0.6l-0.3,0.1l-0.1,0l0,0l0,0l-0.1,0l-0.1,0l-0.4,0.1
			c-0.3,0.1-0.7,0.1-1.1,0.2c-0.4,0-0.7,0-1.1-0.1c-0.4-0.1-0.7-0.2-1.1-0.4c-0.3-0.2-0.6-0.4-0.9-0.6c-0.3-0.2-0.5-0.5-0.7-0.8
			c-0.2-0.3-0.4-0.6-0.6-0.9c-0.2-0.3-0.3-0.6-0.4-0.9c-0.1-0.3-0.2-0.6-0.3-1l1.1,0.5c-0.4,0.2-0.8,0.4-1.2,0.5
			c-0.4,0.1-0.9,0.2-1.3,0.3c-0.4,0.1-0.9,0.1-1.4,0c-0.2,0-0.5-0.1-0.7-0.1c-0.2,0-0.5-0.1-0.7-0.3c-0.2-0.1-0.4-0.2-0.6-0.4
			c-0.2-0.1-0.4-0.3-0.5-0.5c-0.1-0.2-0.3-0.4-0.4-0.6l-0.3-0.6c-0.1-0.2-0.2-0.4-0.3-0.6l-0.2-0.6l-0.2-1.3l1.1,0.2l-0.8,1.1
			l-0.4,0.6l-0.5,0.5c-0.3,0.3-0.6,0.7-0.9,1l-1.1,0.9c-0.3,0.3-0.8,0.5-1.1,0.8c-0.4,0.2-0.8,0.5-1.2,0.7l-1.2,0.6l-1.3,0.5
			c-0.4,0.2-0.9,0.3-1.3,0.4c-0.4,0.1-0.9,0.2-1.3,0.3c-0.4,0.1-0.9,0.2-1.3,0.2c-0.4,0.1-0.9,0.1-1.3,0.1c-0.9,0.1-1.8,0.1-2.7,0
			c-0.9,0-1.8-0.1-2.7-0.3c0.9,0.1,1.8,0.1,2.7,0.1c0.9,0,1.8-0.1,2.7-0.2c0.4,0,0.9-0.1,1.3-0.2c0.4-0.1,0.9-0.2,1.3-0.3
			c0.4-0.1,0.9-0.2,1.3-0.4c0.4-0.1,0.8-0.3,1.2-0.4l1.2-0.5l1.2-0.6c0.4-0.2,0.7-0.5,1.1-0.7c0.4-0.3,0.7-0.5,1-0.8l1-0.9l0.8-1
			l0.4-0.5l0.3-0.5l0.7-1.1l0.8-1.2l0.3,1.4l0.3,1.1l0.2,0.5c0.1,0.2,0.1,0.4,0.2,0.5l0.3,0.5c0.1,0.1,0.2,0.2,0.3,0.4
			c0.1,0.1,0.2,0.2,0.4,0.3c0.1,0.1,0.3,0.2,0.4,0.2c0.1,0.1,0.3,0.1,0.5,0.2c0.2,0,0.3,0.1,0.5,0.1c0.3,0,0.7,0,1-0.1
			c0.4-0.1,0.7-0.2,1-0.3c0.3-0.1,0.7-0.3,1-0.4l0.8-0.5l0.3,0.9c0.1,0.2,0.2,0.5,0.3,0.7c0.1,0.3,0.2,0.5,0.4,0.7
			c0.1,0.2,0.3,0.4,0.5,0.6c0.2,0.2,0.4,0.4,0.5,0.5c0.2,0.2,0.4,0.3,0.6,0.4c0.2,0.1,0.4,0.2,0.7,0.2c0.2,0,0.5,0,0.7,0
			c0.2,0,0.4,0,0.7-0.1l0.4-0.1l0.1,0c0.1,0-0.1,0-0.1,0l0,0l0,0l0,0l0,0l0,0l0.2-0.1c0.2-0.1,0.4-0.2,0.6-0.4
			c0.2-0.2,0.3-0.3,0.5-0.5c0.1-0.2,0.3-0.4,0.4-0.6c0.2-0.4,0.3-1,0.4-1.5c0-0.3,0-0.5,0-0.8c0-0.3,0-0.6-0.1-0.8l-0.6-3.3l2.2,2.6
			c1.1,1.3,2.6,2.5,4.1,2.7c0.8,0.1,1.5-0.1,2.1-0.4c0.4-0.2,0.6-0.4,0.9-0.7c0.1-0.1,0.3-0.3,0.4-0.5l0.5-0.6
			c0.4-0.4,0.6-1.3,0.6-2.1c0-0.8-0.1-1.7-0.4-2.4c-0.5-1.6-1.7-2.9-3.2-3.8c-1.5-0.9-3.2-1.4-5-1.8c-0.9-0.2-1.8-0.2-2.7-0.4
			l-2.9-0.1l-2.7,0.2c-0.5,0-0.9,0.1-1.4,0.2l-1.3,0.2c-0.5,0.1-0.9,0.2-1.3,0.4l-1.3,0.4c-0.9,0.3-1.7,0.8-2.5,1.1
			c-0.8,0.5-1.6,0.9-2.4,1.5c-0.8,0.5-1.5,1.1-2.3,1.6c-0.8,0.6-1.5,1.1-2.3,1.7c-0.8,0.6-1.6,1.1-2.4,1.6c-0.8,0.5-1.6,1-2.5,1.5
			c-0.9,0.4-1.7,1-2.6,1.3c-0.9,0.4-1.8,0.8-2.7,1.1l-2.8,0.9c-0.9,0.3-1.9,0.5-2.8,0.7c-0.9,0.2-1.9,0.5-2.8,0.6l-2.9,0.4
			c-0.9,0.1-1.9,0.3-2.9,0.3l-2.9,0.2c-1,0.1-1.9,0.2-2.9,0.1L269.7,563.8z"/>
	</g>
	<g>
		<path fill="#FFFFFF" d="M397.9,552.6c11.2,0,22.6-18.1,41.6-18.1c16.6,0,15.2,9,13.2,10.9c-2.5,2.4-8.5,0.7-8.5,0.7s1,4.5-2.4,5.8
			c-4.6,1.6-6.1-3.7-6.1-3.7s-1,7.6-6.1,0c-12,0.2-18.4,4.5-18.4,4.5"/>
		<path fill="#4D4741" d="M397.9,552.6c1.6,0,3.1-0.5,4.6-1c1.5-0.6,2.9-1.3,4.2-2.2c2.7-1.7,5.3-3.6,7.9-5.4
			c2.6-1.8,5.3-3.6,8.1-5.2c2.8-1.6,5.8-2.8,8.9-3.7c1.6-0.4,3.2-0.7,4.8-0.9c1.6-0.2,3.2-0.2,4.8-0.2c1.6,0.1,3.2,0.2,4.8,0.5
			c1.6,0.3,3.2,0.8,4.6,1.7c1.4,0.8,2.7,2.1,3.3,3.7c0.6,1.6,0.5,3.5-0.4,5c-0.5,0.8-1.3,1.3-2.1,1.6c-0.8,0.3-1.7,0.4-2.5,0.4
			c-1.7,0-3.3-0.2-4.9-0.6l0.5-0.5c0.1,0.7,0.2,1.3,0.1,2c0,0.7-0.1,1.3-0.4,2c-0.2,0.6-0.7,1.2-1.2,1.7c-0.3,0.2-0.6,0.4-0.9,0.5
			c-0.1,0.1-0.3,0.1-0.5,0.2c-0.1,0-0.3,0.1-0.5,0.1c-0.7,0.2-1.4,0.2-2,0c-0.7-0.1-1.3-0.5-1.8-0.9c-0.5-0.4-0.9-1-1.3-1.5
			c-0.3-0.6-0.6-1.1-0.8-1.8l0.7-0.1c-0.1,0.8-0.4,1.6-0.8,2.4c-0.2,0.4-0.5,0.7-0.9,1c-0.2,0.1-0.5,0.2-0.7,0.2
			c-0.2,0-0.5,0-0.7-0.1c-0.2-0.1-0.4-0.2-0.6-0.3c-0.2-0.1-0.4-0.2-0.5-0.4c-0.3-0.3-0.6-0.6-0.9-0.9c-0.6-0.6-1-1.3-1.5-1.9
			l0.2,0.1c-1.6,0-3.2,0.1-4.8,0.3c-0.8,0.1-1.6,0.2-2.4,0.3c-0.8,0.1-1.6,0.3-2.3,0.4c-0.8,0.2-1.6,0.4-2.3,0.6
			c-0.8,0.2-1.5,0.5-2.3,0.7c-1.5,0.5-3,1.1-4.3,2c0.7-0.4,1.4-0.8,2.1-1.2c0.7-0.4,1.5-0.7,2.2-1c0.7-0.3,1.5-0.6,2.3-0.8
			c0.8-0.2,1.5-0.4,2.3-0.6c0.8-0.2,1.6-0.4,2.3-0.5c0.8-0.2,1.6-0.3,2.4-0.4c0.8-0.1,1.6-0.2,2.4-0.3c0.8-0.1,1.6-0.1,2.4-0.1
			l0.1,0l0.1,0.1c0.5,0.6,0.9,1.3,1.5,1.9c0.5,0.6,1.1,1.1,1.8,1.3c0.2,0,0.3,0.1,0.5,0c0.2,0,0.3-0.1,0.4-0.1
			c0.3-0.2,0.5-0.5,0.7-0.8c0.4-0.6,0.6-1.4,0.7-2.2l0.2-1.5l0.5,1.4c0.2,0.5,0.4,1.1,0.8,1.6c0.3,0.5,0.7,1,1.1,1.3
			c0.4,0.4,0.9,0.6,1.5,0.7c0.5,0.1,1.1,0.1,1.7-0.1c0.1,0,0.3-0.1,0.4-0.1c0.2,0,0.3-0.1,0.4-0.1c0.3-0.1,0.5-0.3,0.7-0.4
			c0.4-0.3,0.7-0.8,1-1.3c0.2-0.5,0.3-1.1,0.3-1.7c0-0.6,0-1.2-0.1-1.7l-0.1-0.7l0.7,0.2c1.5,0.4,3.1,0.6,4.6,0.5
			c1.5-0.1,3.1-0.4,3.8-1.6c0.7-1.2,0.8-2.9,0.3-4.2c-0.5-1.4-1.6-2.5-2.9-3.2c-2.7-1.5-5.9-2-9-2.1c-1.6-0.1-3.1,0-4.7,0.1
			c-1.6,0.2-3.1,0.4-4.6,0.8c-6.1,1.6-11.6,4.9-16.8,8.5c-2.6,1.8-5.2,3.6-8,5.2c-1.4,0.8-2.8,1.5-4.3,2
			C401.1,552.3,399.5,552.6,397.9,552.6z"/>
	</g>
	<g>
		<path fill="#FFFFFF" d="M392.1,553.5c5,0.1,8.7-1,10.7-3.9c0,0,5.5,9,17.3,9"/>
		<path fill="#4D4741" d="M392.1,553.5c2-0.3,3.9-0.6,5.7-1.3c0.4-0.2,0.9-0.4,1.3-0.6c0.4-0.2,0.8-0.5,1.1-0.7
			c0.4-0.3,0.7-0.6,1-0.9c0.3-0.3,0.6-0.7,0.8-1l0.7-1.1l0.8,1.1c0.2,0.3,0.5,0.6,0.7,0.9c0.2,0.3,0.5,0.6,0.8,0.9
			c0.5,0.6,1.1,1.1,1.7,1.7c0.6,0.5,1.2,1,1.9,1.5c0.3,0.2,0.7,0.5,1,0.7c0.3,0.2,0.7,0.4,1,0.6c0.3,0.2,0.7,0.4,1.1,0.6
			c0.4,0.2,0.7,0.4,1.1,0.5l1.1,0.5c0.4,0.2,0.8,0.3,1.2,0.4c0.4,0.1,0.8,0.3,1.2,0.4l1.2,0.3c0.4,0.1,0.8,0.2,1.2,0.2l1.3,0.2
			l-1.3,0.1c-0.4,0-0.9,0.1-1.3,0.1l-1.3-0.1c-0.4,0-0.9-0.1-1.3-0.2c-0.4-0.1-0.9-0.1-1.3-0.2l-1.3-0.4c-0.4-0.1-0.8-0.3-1.2-0.4
			c-0.4-0.1-0.8-0.3-1.2-0.5c-0.4-0.2-0.8-0.4-1.2-0.6c-0.4-0.2-0.8-0.4-1.1-0.7c-0.7-0.5-1.4-1-2.1-1.6c-0.7-0.6-1.3-1.2-1.9-1.9
			c-0.3-0.3-0.6-0.7-0.8-1c-0.3-0.4-0.5-0.7-0.8-1.1l1.6,0.1c-0.3,0.4-0.7,0.9-1.1,1.2c-0.4,0.4-0.8,0.7-1.3,1
			c-0.5,0.3-1,0.5-1.5,0.7c-0.5,0.2-1,0.4-1.5,0.5c-1,0.2-2.1,0.3-3.1,0.3C394.1,553.8,393.1,553.7,392.1,553.5z"/>
	</g>
</g>
</svg>
