<svg version="1.1" id="Layer_1" xmlns="http://www.w3.org/2000/svg" xmlns:xlink="http://www.w3.org/1999/xlink" x="0px" y="0px"
	 viewBox="0 0 352.1 569.4" enable-background="new 0 0 352.1 569.4" xml:space="preserve">
<g>
	<g id="GCTITMonitor">
		<g id="GCTITScreen_1_">
			<path fill="#4D4741" d="M310.7,211.1c-2.6-18.7-6.1-37.4-5.5-56.4c0.6-21.6,2.5-43.2,2.6-64.9c0-26.6-0.4-82.7-36.3-85.8
				c-7-3.8-15.6-4.5-23.7-3.9c-16.2,1.3-32,6.9-47.4,11.6C167,21.9,131.3,23.4,96.8,27.2c-18.1,2-36.2,4.1-54.3,6.6
				c-9.3,1.3-18.6,2.7-27.9,4.2c-6.8,1.1-9,1.1-11.9,7c0,0,0,0,0,0.1c-0.1,0.3-0.2,0.6-0.3,0.8c-0.1,0.3-0.1,0.7-0.1,1
				C2,89.2-0.9,131.3,0.3,173.6c0.3,9.9,1.2,19.7,2,29.5c0.7,7.6,2,15.3,1.5,22.9c-0.7,12.1-1.8,24.1-1.9,36.2
				c-0.1,8.8-0.9,22.4,5.2,29.8c4.5,5.4,12.2,7.9,18.7,9.8c22.7,6.7,47.2,8.1,70.6,9.8c24.1,1.7,48.2,2.6,72.2,4.8
				c41.4,3.8,83,7.7,124.6,6.1c0.8-0.1,1.7-0.3,2.4-0.8c0.3,0.7,1.1,1.1,2,0.7c15.6-5.6,17.8-25.7,18.5-39.9
				C317.6,258.8,314,234.6,310.7,211.1z M26.8,43.9c11.5-1.8,23-3.3,34.5-4.7c21.1-2.6,42.3-4.8,63.4-7.2c19.7-2.2,40-3.5,59.4-7.6
				c16.2-3.4,31.7-9.5,47.8-13.5c9-2.2,20-4.6,29.4-2.4c-0.6,0.7-1.1,1.3-1.6,2c-1.3,1.8-2.2,3.8-3.1,5.8c-1.8,4-4.4,7.7-6.6,11.4
				c0,0,0,0,0,0.1c-0.2-0.1-0.3-0.2-0.5-0.3c-10.7-5.1-25.4-5.1-36.8-3.5c-18.6,2.6-36.3,9.3-54.8,11.8
				c-25.3,3.4-50.5,7.5-75.8,10.7c-12.8,1.6-25.7,2.8-38.7,3.6c-6.3,0.4-12.7,0.6-19,0.7c-1.9,0-3.6,0.3-5,0.9c-1.1-1.5-2.3-2.9-4-4
				c-0.8-0.6-1.8-1.1-2.7-1.5C17.4,45.4,22.1,44.7,26.8,43.9z M20,55.4c2-1.3,4-0.7,6.7-0.7c4.7-0.1,9.5-0.3,14.3-0.6
				c10.5-0.6,20.9-1.5,31.4-2.7c19.4-2.1,38.8-5,58.2-7.9c18.7-2.7,37.1-5.3,55.5-10c17.4-4.4,34.3-8.1,52.2-5.3
				c10.7,1.7,17.5,6.5,20.2,17.1c3.7,14.3,4.1,30.1,5.2,44.7c2.9,39.7,3.4,79.5,8.4,119c3.7,28.8,8.5,61.8-1.6,89.9
				c-41.2-3.8-82.5-3.8-123.7-5.8c-26.5-1.3-53.3,0.9-79.6-3.4c-12.1-2-24.8-5.5-34.3-13.6c-11.1-9.4-13.2-25.4-14.2-39.1
				c-1.1-15.9,0.1-31.9,0.8-47.8c0.6-14,0.8-27.8,2-41.7c1.4-16.9,1.2-33.4,1.4-50.3C23.2,83.5,24.5,68.7,20,55.4z M12.5,286
				C12.5,285.9,12.5,285.9,12.5,286c-2.2-4.3-2.3-10-2.6-14.6c-0.4-6.7-0.2-13.5,0.1-20.3c0.5-9.8,0.1-19.6,0.3-29.5
				c0.2-8.5-0.1-17.5-0.8-26c-0.8-9.7-1.4-19.4-1.5-29.1c-0.3-19.5-0.6-38.8,0.1-58.4c0.7-19.8,1.7-39.5,1.8-59.4
				c0.7,0.4,1.5,0.8,2.2,1.2c2,1,3.2,2.2,4.4,3.9c-0.4,0.4-0.6,0.9-0.7,1.5c1.3,3.5,3.4,29.4,3.2,44c-0.3,16.3,0,32.2-1.4,48.4
				c-1.2,13.9-1.5,27.8-2,41.7c-0.6,16-1.7,31.9-0.8,47.8c0.7,12.2,2.5,26.4,10.2,36.3c0.4,0.5,0.7,0.9,1.2,1.4
				c-2.7,1.5-5.7,2.7-8.2,4.7c-1.3,1-2.1,2.1-3,3.4C14.3,284.2,13.5,285.1,12.5,286z M175.6,309.3c-23.9-2.2-47.6-3.4-71.5-4.9
				c-24.3-1.5-49.1-3.2-72.8-9.2c-4.7-1.2-12-2.7-16.2-6.2c0.7-0.7,1.3-1.3,2-2c1.1-1.3,1.7-2.8,2.9-4.1c2.3-2.4,6.1-3.5,9-5.2
				c6.2,6.1,14.1,9.8,22.3,12.4c25,8,52.8,6.5,78.8,6.6c21.4,0.1,42.8,1.4,64.2,2c25.6,0.8,51.3,1.8,76.8,4.1c0,0,0.1,0.1,0.1,0.2
				c3.9,3.5,8.4,6,12.7,9c1.2,0.8,2.2,1.8,3,2.8C249.6,315.9,212.6,312.7,175.6,309.3z M290.3,313.8c-1.5-1.8-2.9-3.8-4.6-5.1
				c-3.8-2.8-8-4.9-11.6-8.1c10.8-29.1,5.5-63.4,1.8-93.4c-5-39.7-5.4-79.7-8.4-119.6c-1-14-2-28.4-4.8-42.1
				c-1.3-6.4-4.2-12-9.3-15.6c0,0,0.1-0.1,0.1-0.2c2.5-4.2,5.2-8.4,7.2-12.9c1.2-2.6,3.1-4.7,4.6-7.1c3.1,1.3,5.9,3.2,8.3,5.9
				c8.4,9.4,7.1,26.5,7.5,38.1c0.7,19.6,2.8,39,3,58.7c0.1,20-0.8,39.9-0.4,59.9c0.5,24.6,4.2,49,6.7,73.4
				C292.5,268.2,294.5,291.5,290.3,313.8z M312.2,285.1c-0.7,11.2-2.7,28.4-14.8,33.2c6.9-33.2,1.3-68-2.4-101.2
				c-2-17.7-3.6-35.5-3.6-53.4c0-20.4,0.7-40.8,0.3-61.3c-0.3-18.7-2.3-37.2-3.1-55.8c-0.5-11.8-1.1-24.8-8.1-34.8
				c-0.4-0.6-0.8-1.1-1.3-1.6c11.4,5.2,17.3,18.5,20.4,31.6c5.4,22.5,4.6,46.4,3.8,69.4c-0.7,18.8-3.2,38-2,56.8
				c1.4,21.5,5.7,42.9,8.3,64.3C311.7,249.7,313.3,267.5,312.2,285.1z"/>
			<g>
				<path fill="#4D4741" d="M199.8,327.1c-0.8-2.5-13.4-15-17-15.4c-10.1-1.2-62.3-5.8-63.1-5.5c-0.8,0.3-3.2,19.1-1.1,26.4
					c1.7,5.7,62.5,8.9,70.4,6.3c3.3-1.1,5.4-4.6,8.3-6.3C199.5,331.3,200.5,329.5,199.8,327.1z M122.2,310.8
					c1.9,0.5,59.6,3.8,59.6,5.2c0,0,0.4,11.5,0.4,11.5c0,0-18.2-1.9-27.8-3.1c-11.1-1.4-33.6-1.9-33.1-1.8
					C121.4,321.5,122,313.7,122.2,310.8z M182.9,335.6c-3.8,0.2-7.9-0.2-11.8-0.1c-8.7,0.1-17.4,0.2-26.1-1
					c-3.8-0.5-21.9-0.1-23.2-4.6c-0.3-1-0.5-2.1-0.5-3.3c0.6,0,19.9,0.8,30,1.8c10.4,1,20.7,2.7,31.3,2.8
					C183,331.2,183.8,335.6,182.9,335.6z M194.8,329.8c-1.4,1.4-7.5,5.1-7.6,5.2c-0.5-2-1.3-14.5-1.3-14.5
					C192.2,322.6,197.5,327.2,194.8,329.8z"/>
			</g>
			<path fill="#4D4741" d="M232.4,337.7c-0.2-0.3-0.5-0.5-0.8-0.6c-0.5-1.5-1.9-2.4-4.5-2.3c-7.5,0.2-14.8-2.2-22.5-2.2
				c-3.7,0-7.5,0-11.2,0.8c-1.2,0.2-8.5,3.9-11.4,4.3c-12.5,1.5-25.4,0.5-37.9-1c-8.8-1.1-20.1-1.9-27.9-6.4
				c-7.8-4.4-20.7-0.8-28.3,3c-11.1,5.6-19.1,16.6-27,25.9c-1.1,0.6-4,2.2-4,4.3c0,0.4,0.1,0.7,0.2,1.1c-1.3,4.3-1.2,8.5,3.5,10.5
				c3.7,1.6,8.2,1.3,12.1,2.2c4.9,1.1,9.6,2.2,14.6,2.7c23.3,2.5,47.5,1.9,70.8,1.6c11.2-0.2,22.4-0.4,33.6-0.7
				c8.7-0.3,17.8,0.4,25.4-4.6c6.7-4.4,11.8-12.6,16.1-19.2C238,349.9,237.7,344.1,232.4,337.7z M96.7,333.9
				c4.4-1.3,13.6-3,17.6-0.2c3.1,2.1,7.5,2.8,11.2,3.7c13,3.1,26.6,4.5,39.9,4.8c6.2,0.2,12.6,0,18.7-0.9c3.1-0.4,5.3-1.1,8-2.8
				c4.7-2.9,12.1-2.1,17.4-2c1.3,0,18.3,1.8,18.4,2.9c0.7,6-5.1,11.3-8.3,15.9c-8.8,12.7-26.2,12.5-40,12.4
				c-19.8-0.2-39.5,0.4-59.3,0.7c-12.3,0.2-24.8,0.1-37.1-0.8c-4.7-0.3-16.8-0.4-21.4-4.5C61.9,362.9,82.4,338.1,96.7,333.9z
				 M230,355.1c-2.3,3.8-5.1,7.4-7.9,10.9c-4,5.1-8.5,8.8-14.9,10.1c-7.9,1.6-16.9,0.9-24.9,1.1c-8.8,0.2-17.6,0.3-26.5,0.4
				c-17.1,0.3-34.1-0.3-51.2-0.7c-8.8-0.2-17.6-0.4-26.2-2.2c-3.8-0.8-7.4-1.8-11.1-2.4c-4.3-0.6-6.8-1.3-6.7-4.5
				c3.5,1.6,8.6,2,11.7,2.5c10.2,1.7,20.7,2,31.1,2.1c18.6,0.2,37.2-0.8,55.7-1.2c13.8-0.3,27.6,1.3,41.4-0.9
				c5.6-0.9,11.1-2.8,15.8-6c4.4-3,7.1-7.8,10.2-12c1.2-1.6,3.6-5.7,4.8-9.5C233.6,346.9,232.9,350.4,230,355.1z"/>
		</g>
		<g id="GCTITScreenContent">
			<path fill="#4D4741" d="M158.5,108c-1.3-11.6-6.1-22.6-16.1-29.1c-5.2-3.4-11.4-4.3-17.5-5c-8.6-1-17.2-1.9-25.8-1.2
				c-6,0.5-11.8,2.1-17,5.2c-1,0.6-1.2,1.8-0.7,2.7c-20.7,5.3-28.1,29.2-22.9,49.1c7.1,27.9,39.6,37,65,32.9
				c11.8-1.9,22-7.3,28.6-17.4C159.2,134.5,159.9,120.3,158.5,108z M155.6,119.5c-0.6-0.1-1.3,0.1-1.8,0.8
				c-5.4,8.6-14.8,13-21.2,20.7c0,0,0,0,0,0.1c-1.5-1.3-2.9-2.7-4.4-4.2c0.1,0,0.1-0.1,0.1-0.1c8.9-10.4,19.9-19.2,26.1-31.4
				C155.3,110,155.8,114.7,155.6,119.5z M150.4,93.8c0.6,1.2,1.2,2.4,1.7,3.8c0.3,0.9,0.6,1.8,0.9,2.7c-0.5,0.2-0.8,0.6-1.1,1.1
				c-5.5,13.1-17.3,22.1-26.4,32.7c0,0-0.1,0.1-0.1,0.2c-1.9-2-3.8-4-5.7-6.1c5.3-3.9,9-8.9,12.9-14.1
				C138.1,106.8,144.8,100.7,150.4,93.8z M142.6,84.3c2.1,1.6,4,3.5,5.6,5.9c-5,6.4-10.9,11.9-16.1,18.2c-4.8,5.9-8.7,12.3-15,16.8
				c-1.3-1.4-2.5-2.7-3.7-4.1c-0.4-0.5-0.8-0.9-1.1-1.4c0.2-0.1,0.4-0.3,0.5-0.6C120.1,105.2,135.6,98.4,142.6,84.3z M122.9,77.5
				c1.2,0.1,2.3,0.3,3.4,0.5c-5.2,6.8-11.5,12.7-16.7,19.4c0.1-8.7-0.5-21.1-0.5-21.1C113.6,76.5,118.8,77,122.9,77.5z M109.3,102.4
				c0.7,0.1,1.4-0.1,1.9-0.8c5.9-8.1,13.4-14.7,19.3-22.8c3.3,0.8,6.2,1.9,8.9,3.4c0,0,0,0,0,0.1c-6.7,13.7-21.6,20.4-29.1,33.5
				C108.6,111.6,109,107.4,109.3,102.4z M132.1,156.4c-11.5,4.4-25.7,3.7-37.5,1.1c-13.2-2.9-24-10.7-30.1-22.7
				c-9.6-19-1.8-48.7,21.7-51.3c2,0.2,3.9-2.5,2-3.7c0,0-0.1,0-0.1-0.1c4.8-2.6,16.3-3.4,16.3-3.4c0.3,0,0.3,17.9-0.2,26.8
				c-0.4,5.6-0.4,10.7,2.1,15.9c2.7,5.9,9.7,11.2,14.1,16c5.9,6.2,12.1,12.2,18.9,17.5C137.2,154.1,134.8,155.4,132.1,156.4z
				 M142.7,150c0-0.1-0.2-0.2-0.3-0.3c-2.4-1.9-4.8-3.9-7.1-5.9c5.9-7,14.1-11.5,19.8-18.6C153.7,134.8,149.7,143.7,142.7,150z"/>
			<g>
				<path fill="#4D4741" d="M243.4,279.9c-34.5-3.8-69.3-5.5-103.9-5.7c-34.2-0.1-68.5,0.7-102.5-3.9c-2.5-0.3-2.5-4.2,0-3.9
					c1.4,0.2,2.7,0.8,4.1,0.9C38,235,37.9,175,37.9,175c0-4,3.9-4,3.9,0c0,27,0.1,61.4,3.2,92.8c32.2,3.5,64.7,2.5,97,2.8
					c33.8,0.3,67.8,1.9,101.4,5.6C245.9,276.4,245.9,280.2,243.4,279.9z"/>
				<g>
					<path fill="#4D4741" d="M81.6,225.8c-0.6-7.3-5-8.2-11.5-8.2c-6.8,0-11.2-1.3-11.7,6.6c-1.1,15.4,0,46.7,0.7,47.5
						c0.7,0.8,14.5,0.4,20.7,0.2c1.1,0,2-0.9,2-2C81.9,255.3,82.8,240.3,81.6,225.8z M62.3,224.2c0.2-4,2.6-2.7,6.1-2.7
						c-1.8,4.8-4,9.4-6.2,14C62,231.7,62,228,62.3,224.2z M77,267.9c0,0-1.6,0-2.5,0c1-1.5,0.5-3.1,2.5-4.7V267.9z M76.7,255.9
						c-1.8,4-3.2,8.2-6,11.6c-0.1,0.2-0.3,0.4-0.4,0.6c-2.4,0.1-4.9,0.1-7.3,0.2c0-0.1,0-0.2,0-0.3c0.4-0.1,0.8-0.4,1.1-1
						c4.3-9.2,10.2-18,13.4-27.7c0,0,0,15.6,0,15.6c0,0,0.1,0,0.2,0C77.4,255,77,255.3,76.7,255.9z M78.1,230c-1,0-2.3,0.2-2.6,1.6
						c-1.8,10.4-7.7,19.9-12.5,29.2c-0.2-6.2-0.6-12.4-0.8-18.6c0.6,0,1.2-0.3,1.5-1c2.9-6.2,5.9-12.3,8.3-18.7
						c0.2-0.4,0.2-0.8,0-1.1c1.9,0,3.8-0.2,4.6,0.9C78.1,224.1,78.2,230,78.1,230z"/>
				</g>
				<g>
					<path fill="#4D4741" d="M115.3,240.3c-0.3-9.7-0.1-19.5-1.3-29.2c-0.4-2.9-0.4-6.3-3.8-7.3c-5.7-1.8-11.8-2.3-17.6-1
						c-0.8,0.2-1.5,1.1-1.4,1.9c1.5,22.1,5.7,46.1,2,68.2c0,0.1,7.1-0.3,13.3-0.6c0.2,0,0.4,0,0.6,0c2.2-0.1,4.2-0.2,5.7-0.3
						c1.2,0,1.8-0.4,2-1.5C115.7,260.2,115.6,250.5,115.3,240.3z M111,227.7c0.1,4.1,0.3,8.3,0.5,12.4c-0.7-0.2-1.5,0-2,0.9
						c-2.7,6.2-7.5,11.2-11.3,16.7c0.1-3.2,0.1-6.4,0.1-9.6c0.3-0.2,0.5-0.5,0.7-0.8c3.9-8.8,9.3-17,12-26.2
						C111,223.5,110.9,225.7,111,227.7z M100.8,205.8c0,0.1-0.1,0.2-0.1,0.3c-0.8,4.3-2.6,8.3-4.5,12.2c-0.4-4-0.7-8-1.1-12
						C96.6,206.1,98.7,205.9,100.8,205.8z M97.3,225.3c2.4-6,6-11.7,7.2-18.2c0.1-0.5,0-0.9-0.1-1.3c2.6,0.2,4.7,0.8,5.3,2.2
						c0.6,1.8,1,3.8,1.2,5.8c-1-0.4-2.2,0-2.4,1.3c-1.5,9.2-6.2,17-10.3,25.1c-0.3-4.8-0.7-9.6-1.2-14.4
						C97.1,225.8,97.2,225.6,97.3,225.3z M110.8,269c-0.4,0-0.7,0-1.1,0c0.4-0.6,0.8-1.2,1.3-1.8C110.9,267.8,110.9,268.4,110.8,269
						z M111.4,260.3c-2.4,2.9-4.6,5.9-6.7,9c-2.6,0.1-5.1,0.3-7.6,0.4c0.2-1.8,0.5-3.7,0.6-5.5c0.6,0,1.3-0.3,1.7-1
						c3.5-6.2,8.7-11.3,12.1-17.5C111.7,250.6,111.6,255.4,111.4,260.3z"/>
				</g>
				<g>
					<path fill="#4D4741" d="M143.3,183.2c-4-3.4-11.7-0.8-16.2-0.6c-0.8,0-1.8,0.6-1.9,1.4c-2.3,13.4,0.3,26.8,0.4,40.3
						c0.2,15.3,2.9,30.9,0.1,46.1c-0.1,0.6,1.4,2.4,2,2.4c5.6,0.1,10.9,0.3,16.5,0.5c1.1,0,1.8-0.9,1.8-2c0.1-23.5,0.6-47,0.9-70.6
						C146.8,195.3,147.9,187.2,143.3,183.2z M130.2,244.9c0.4-0.1,0.7-0.4,0.9-0.8c3.5-6.3,8.2-12,11.5-18.5c0,4.3-0.1,8.6-0.3,12.8
						c-0.3,0.1-0.6,0.4-0.7,0.8c-2.7,6-7.6,10.6-11.3,16.1C130.4,251.8,130.3,248.3,130.2,244.9z M142.8,212.1c0,1.1,0,2.3,0,3.4
						c-0.4,0.2-0.7,0.6-0.8,1.2c-2,8.2-7.5,14.7-12,21.8c-0.1-2.5-0.2-5-0.3-7.5c0-1.6-0.1-3.3-0.2-5c0.5,0,1-0.4,1.3-1
						c3.5-8.3,8.9-15.6,12.7-23.7C143.2,204.9,142.8,208.8,142.8,212.1z M142.3,189.2c0.5,1.5,0.7,3.3,0.8,5c-0.7,0-1.4,0.4-1.8,1.3
						c-3.1,8.6-8.6,15.9-12.5,23.9c-0.3-3.7-0.6-7.4-0.8-11.1c0.2-0.2,0.5-0.4,0.6-0.7c3.2-6.6,5.4-13.6,7.9-20.6
						c0.2-0.6,0.1-1.1-0.1-1.4C139.2,185.7,141.5,186.5,142.3,189.2z M128.7,186.4c1.3-0.1,2.7-0.4,4.2-0.6c0,0-0.1,0.1-0.1,0.1
						c-1.6,4.7-3.2,9.4-5,14C127.8,195.4,128,190.8,128.7,186.4z M141.9,269.3c-1.1,0-2.1,0-3.2-0.1c1.2-1.3,2.3-2.8,3.3-4.4
						C141.9,266.3,141.9,267.8,141.9,269.3z M142,258.8c-0.7-0.1-1.4,0.1-1.8,1c-1.5,3.4-3.6,6.3-6.4,8.7c-0.2,0.2-0.4,0.4-0.5,0.6
						c-1.3-0.1-2.7-0.1-4-0.1c0.4-2.4,0.7-4.7,0.8-7.1c0.6,0,1.2-0.3,1.5-1c2.7-5.5,7.3-9.7,10.7-14.7
						C142.2,250.3,142.1,254.5,142,258.8z"/>
				</g>
				<g>
					<path fill="#4D4741" d="M159.1,208c6.5-1.7,11.9,0.4,18.1,1.9c5.1,1.2,10,1,15.3,0.7c13.6-0.9,26.8,2,40.3,2.7
						c2.5,0.1,2.5-3.8,0-3.9c-13.5-0.7-26.7-3.4-40.3-2.7c-7,0.4-13.1-0.1-19.9-2.1c-5-1.4-9.5-1.7-14.6-0.4
						C155.7,204.9,156.7,208.7,159.1,208L159.1,208z"/>
					<path fill="#4D4741" d="M159.5,234.4c10.6,1.7,21.4,0.4,32,0.1c14-0.4,27.7,3.1,41.8,2.4c2.5-0.1,2.5-4,0-3.9
						c-12.5,0.7-24.8-1.8-37.3-2.4c-11.8-0.5-23.7,2-35.4,0C158.1,230.2,157.1,234,159.5,234.4L159.5,234.4z"/>
					<path fill="#4D4741" d="M160.1,257.4c12.2-3.1,24.9-1.1,37.3-0.2c12,0.9,22.6,0.7,36.6,0.7V254c-14,0-26.1,0.1-38.9-0.9
						c-12-0.9-24-2.5-35.8,0.5C156.8,254.2,157.7,258,160.1,257.4L160.1,257.4z"/>
				</g>
			</g>
			<path fill="#4D4741" d="M223,187.5c0.7-1,1.2-18.7,1.9-28.1c0.7-9.6,0.5-19.4,0.9-29c0.3-9.3,0.3-18.8,0.3-28.2
				c0-6,12.7-1.8,17.1-2.4c1.6-0.2,1.7-2.3,0.9-3.3c-3.8-4.7-8.2-8.7-12.4-13.1c-5-5.1-8.6-11.4-12.5-17.4c-0.6-1-2.2-1.4-3-0.4
				c-4.8,5.5-9.3,11.3-13.8,17.1c-3.8,4.9-8.3,9-11.1,14.7c-0.6,1.3,0.1,2.9,1.7,2.9c3.2,0,6.4,0,9.5,0c4.7,0,4.3,3.9,4.5,7.5
				c0.6,8.2,0.6,16.4,0.6,24.7c0.1,16.6-0.9,52.9-0.1,53.9 M210.9,183.5c-0.2,0-0.4-44.2-0.2-65.9c0-4.5,1.6-15.5-2.3-19.1
				c-2.9-2.7-7.9-2.4-12.1-2.1c2.8-4.4,6.7-8.1,9.9-12.3c3.6-4.7,7.2-9.2,11-13.7c2.7,4.2,5.4,8.6,8.7,12.5c3.8,4.7,8.3,8.6,12.4,13
				c-5-0.7-11.6-2.6-14.7,0.4c-1.5,1.5-1.4,4-1.5,5.9c-0.1,6.1,0.1,12.3,0,18.5c-0.1,11.3-0.5,22.6-0.8,33.9
				c-0.4,9.8-1.9,29.1-1.9,29.2"/>
		</g>
	</g>
	<g id="GCTITMouse">
		<g>
			<path fill="#4D4741" d="M91.3,546.9c5.2,7.4,14.8,11,23.6,10.4c2-0.1,2-3.3-0.1-3.2c-7.7,0.5-16.3-2.4-20.9-8.9
				C92.9,543.6,90.1,545.3,91.3,546.9L91.3,546.9z"/>
			<path fill="#4D4741" d="M102.1,535.4c5.4,4.7,11.4,8.3,18.4,10.1c7.2,1.9,14.8,1.5,22.1,0.5c2-0.3,2-3.4-0.1-3.2
				c-6.7,0.9-13.4,1.2-20-0.1c-6.9-1.4-13-5-18.2-9.6C102.8,531.8,100.6,534.1,102.1,535.4L102.1,535.4z"/>
			<path fill="#4D4741" d="M121.4,527.6c4.6,2,8.5,5.2,13.4,6.4c5.7,1.4,12.3,0.7,18.1,0.3c2-0.2,2-3.3-0.1-3.2
				c-5.4,0.4-11,0.8-16.4,0c-5-0.7-9-4.3-13.5-6.3C121.1,524,119.5,526.8,121.4,527.6L121.4,527.6z"/>
			<path fill="#4D4741" d="M141.1,519.2c9.9,5.9,21.2,8.9,32.4,4.7c1.9-0.7,1-3.8-0.9-3c-10.4,3.9-20.8,1.1-30-4.5
				C140.8,515.4,139.3,518.2,141.1,519.2L141.1,519.2z"/>
			<path fill="#4D4741" d="M160.6,510.1c5.3,1.7,9.5,5.3,15.2,5.4c6.3,0.2,12.8-2.1,18.8-4c1.9-0.6,1.1-3.7-0.9-3
				c-5.6,1.8-11.2,3.6-17.1,3.9c-5.7,0.3-10.1-3.7-15.3-5.3C159.4,506.4,158.7,509.5,160.6,510.1L160.6,510.1z"/>
			<path fill="#4D4741" d="M186.2,497c4.5,1.2,8.9,2.9,13.5,3.9c4.7,1.1,9.4,1,14.1,0.1c2-0.4,1.1-3.4-0.9-3
				c-9.2,1.7-17.3-1.7-26-4.1C184.9,493.4,184.2,496.4,186.2,497L186.2,497z"/>
			<path fill="#4D4741" d="M210.9,491.5c2.8,1.2,5.8,1.7,8.9,1.7c2,0,2-3.2-0.1-3.2c-2.5,0-5-0.3-7.3-1.3
				C210.6,488,209,490.8,210.9,491.5L210.9,491.5z"/>
		</g>
		<g id="GCTITMouseSignal">
			<path fill="#4D4741" d="M307.3,428.1c1.8-2.9,3.5-5.7,6-8c3.1-3,7.2-3.7,11.4-3c1,0.1,1.3-1.4,0.3-1.5c-4-0.6-7.7-0.2-11.1,2
				c-3.5,2.3-5.8,6.3-8,9.8C305.4,428.2,306.7,429,307.3,428.1L307.3,428.1z"/>
			<path fill="#4D4741" d="M301.5,426.8c2-9.1,12.5-17.8,21.9-16.2c1,0.2,1.3-1.3,0.3-1.5c-10.3-1.8-21.6,7.4-23.8,17.3
				C299.8,427.4,301.3,427.8,301.5,426.8L301.5,426.8z"/>
			<path fill="#4D4741" d="M289.5,426.7c-0.7-8.2,7.5-14.4,13.2-18.4c7.7-5.5,16.7-11.8,26.7-10.8c1,0.1,0.9-1.5-0.1-1.6
				c-10.5-0.9-19.9,5.7-27.9,11.4c-6.1,4.3-14.2,10.9-13.4,19.5C288.1,427.7,289.6,427.7,289.5,426.7L289.5,426.7z"/>
			<path fill="#4D4741" d="M316.1,440.7c6.7-0.2,18-2,18.6-10.5c0.1-1-1.5-1-1.5,0c-0.5,7.4-11.4,8.8-17.1,9
				C315,439.2,315.1,440.7,316.1,440.7L316.1,440.7z"/>
			<path fill="#4D4741" d="M313.8,447.1c6.1,0.7,12.6-1.3,18-3.7c4.8-2.2,10.6-6.3,9.9-12.5c-0.1-1-1.7-1-1.5,0
				c0.7,6.2-5.9,9.8-10.6,11.7c-4.8,2-10.5,3.5-15.8,2.9C312.7,445.4,312.8,447,313.8,447.1L313.8,447.1z"/>
			<path fill="#4D4741" d="M305.2,456.3c11.4-0.6,23.6-1.1,34.2-5.8c4.7-2.1,9-5,11.6-9.6c3-5.2,2.6-11.5,1.1-17.3
				c-0.3-1-1.7-0.6-1.5,0.4c1.5,5.7,1.6,11.5-1.3,16.5c-2.6,4.5-7.4,7.3-12.1,9.1c-10,4-21.3,4.5-32.1,5
				C304.2,454.8,304.2,456.3,305.2,456.3L305.2,456.3z"/>
		</g>
		<path fill="#4D4741" d="M318.4,423.1c-2.7,1.6-3.6,5-2.3,7.7c-4.5,2.7-8.8,5.4-13.1,8.2c-4.3,2.7-9.2,6.2-14.4,6.4
			c-3.8,0.1-7.3-2.4-10.2-4.6c-3-2.4-6-4.9-9.5-6.4c-6.8-3-13,0.4-15.4,7.2c-1.3,3.8-2,7.6-3,11.5c-1,3.6-3.1,6.2-5.9,8.3
			c-3.7-8.6-11.3-14.9-18.9-20c-9.5-6.3-20.2-11-31.5-12.8c-13.1-2.1-26.5-0.5-39.6,1.7c-31.5,5.3-62.9,15.2-87,37.1
			c-9.5,8.7-18.5,19.1-22.4,31.6c-3.6,11.9-0.8,24,4.8,34.8c6.9,13.3,19.5,22,29.9,32.4c0,0.6-0.1,1.1-0.1,1.6
			c0.1,1.2,0.8,1.6,1.6,1.6c30.8-1,59.2-11.5,87.1-23.8c14.2-6.3,28.2-13.4,40.6-22.9c6-4.5,11.5-9.6,16.5-15.1
			c3.8-4.2,7.6-8.7,10.3-13.8c0.9-1.7,1.7-3.7,2.1-5.6c0.4,0,0.9-0.1,1.2-0.5c6-7.2,8.9-16,5.7-24.9c2.5-1.7,4.5-3.8,5.9-6.6
			c1.5-3,1.9-6.5,2.7-9.7c1.1-4.5,2.8-9.7,7.5-11.4c4.4-1.5,9.2,1.5,12.5,4c4.9,3.7,10.2,9,16.9,7.7c4.7-1,9.1-3.8,13.1-6.4
			c4.4-2.8,8.7-5.5,13.2-8.2c1.9,2.1,5.1,2.7,7.6,1.2c2.8-1.7,3.7-5.4,2-8.2C324.9,422.3,321.2,421.4,318.4,423.1z M73.6,466.4
			c23.1-0.1,34.9,27.3,36.3,47.1c-1.6,1.4-3.2,2.8-4.7,4.3c-1.1-20.3-12.3-45.2-33.7-49.5C72.1,467.6,72.8,467,73.6,466.4z
			 M54.7,535.3c1.5-4,4.4-7.1,7.2-10.3c0.2,0.1,0.3,0.2,0.5,0.3c3.9,1.8,9.1-0.8,12.5-2.6c6.1-3.4,13.9-10.3,9.9-17.9
			c-2.6-5-9.1-1.4-12.2,0.9c-4.4,3.2-10.2,9.4-11.7,11.9c-1.1,1.9-1.3,4.5-0.1,6.3c-2.7,3.1-5.4,6.1-7,9.8c-0.2-0.2-0.3-0.5-0.4-0.7
			c-6.4-11.4-8.5-24.4-3.7-36.7c2.2-5.6,5.6-10.6,9.4-15.2c3.4-4.1,7-7.9,10.9-11.5c21.9,3.7,33.1,29.4,33.7,49.7
			c-11.8,11.7-21.2,26.3-23.2,42.9C71.5,553.5,61.4,545.9,54.7,535.3z M62.1,518.5c2.1-3.3,5.1-6.2,8-8.8c2.7-2.4,7.2-6.5,11.2-5.7
			c2.1,0.4,2.8,3,3.1,4.8c0.4,3.6-2.7,6.8-5.1,9c-2.9,2.6-6.4,4.6-10.1,5.8c-1.8,0.6-3.8,1-5.7,0.5
			C61.4,523.5,61.1,520.4,62.1,518.5z M235.4,486.4c-0.5,3.6-2.5,6.9-4.5,9.8c-4.1,6-9.3,11.4-14.5,16.4
			c-18.2,17.1-41.7,27.2-64.5,36.7c-21.9,9.1-44.5,16-68.3,16.8c0.1-0.4,0-0.8-0.3-1.2c1.6-23,18.4-41.8,36-55.2
			c16.3-12.4,34.5-21.1,54.2-26.7c9.5-2.7,19.3-4.8,29.1-6c7.9-1,16.2-1.7,24.1,0.1C231.3,478.3,236.2,480.9,235.4,486.4z
			 M217,447.2c-13.7-8.5-30.1-8.5-45.6-8.8c-2,0-2.1-3.2-0.1-3.2c16.1,0.3,33,0.4,47.2,9.2C220.2,445.5,218.7,448.3,217,447.2z"/>
	</g>
</g>
</svg>
