<svg version="1.1" id="Layer_1" xmlns="http://www.w3.org/2000/svg" xmlns:xlink="http://www.w3.org/1999/xlink" x="0px" y="0px"
	 viewBox="0 0 1280 800" enable-background="new 0 0 1280 800" xml:space="preserve">
<g>
	<g opacity="0.25">
		<g>
			<polygon fill="#F6F5EE" points="313.6,660.8 277.5,618.1 297.6,618.1 264.2,578.7 285,578.7 257.6,546.3 270.4,546.3
				249.3,521.5 230.1,546.3 243.1,546.3 218.2,578.7 238.6,578.7 208.3,618.1 227.2,618.1 194.3,660.8 249.5,660.8 249.5,712.5
				258.5,712.5 258.5,660.8 			"/>
		</g>
	</g>
	<g opacity="0.25">
		<g>
			<polygon fill="#F6F5EE" points="156.8,660.8 120.6,618.1 140.7,618.1 107.4,578.7 128.1,578.7 100.8,546.3 113.5,546.3
				92.5,521.5 73.3,546.3 86.2,546.3 61.3,578.7 81.7,578.7 51.4,618.1 70.3,618.1 37.5,660.8 92.6,660.8 92.6,712.5 101.6,712.5
				101.6,660.8 			"/>
		</g>
	</g>
	<g>
		<g>
			<polygon fill="#F6F5EE" points="274.4,636 216.4,567.5 248.6,567.5 195.2,504.4 228.5,504.4 184.6,452.5 205,452.5 171.2,412.6
				140.5,452.5 161.3,452.5 121.3,504.4 154,504.4 105.5,567.5 135.8,567.5 83.1,636 171.4,636 171.4,718.9 186,718.9 186,636
				"/>
		</g>
	</g>
	<g>
		<g>
			<rect x="84.7" y="714.8" fill="#F6F5EE" width="188.1" height="8.1"/>
		</g>
	</g>
</g>
<g>
	<g opacity="0.25">
		<g>
			<polygon fill="#EDEBDD" points="803.8,650.3 759.2,597.5 784,597.5 742.8,548.9 768.5,548.9 734.7,508.9 750.4,508.9
				724.4,478.2 700.7,508.9 716.7,508.9 686,548.9 711.1,548.9 673.7,597.5 697.1,597.5 656.5,650.3 724.6,650.3 724.6,714.1
				735.8,714.1 735.8,650.3 			"/>
		</g>
	</g>
	<g opacity="0.25">
		<g>
			<polygon fill="#EDEBDD" points="610.1,650.3 565.5,597.5 590.3,597.5 549.2,548.9 574.8,548.9 541,508.9 556.8,508.9
				530.8,478.2 507.1,508.9 523.1,508.9 492.3,548.9 517.5,548.9 480.1,597.5 503.4,597.5 462.9,650.3 530.9,650.3 530.9,714.1
				542.1,714.1 542.1,650.3 			"/>
		</g>
	</g>
	<g>
		<g>
			<polygon fill="#EDEBDD" points="755.3,619.6 683.8,535 723.5,535 657.6,457.1 698.7,457.1 644.5,393 669.7,393 628,343.8
				590.1,393 615.7,393 566.4,457.1 606.8,457.1 546.8,535 584.3,535 519.2,619.6 628.3,619.6 628.3,721.9 646.2,721.9 646.2,619.6
							"/>
		</g>
	</g>
	<g>
		<g>
			<rect x="521.1" y="716.9" fill="#EDEBDD" width="232.3" height="10"/>
		</g>
	</g>
</g>
<g>
	<g opacity="0.25">
		<g>
			<polygon fill="#EDEBDD" points="951,662.9 916.1,621.7 935.5,621.7 903.3,583.7 923.3,583.7 896.9,552.4 909.2,552.4
				888.9,528.4 870.4,552.4 882.8,552.4 858.8,583.7 878.5,583.7 849.2,621.7 867.5,621.7 835.8,662.9 889,662.9 889,712.9
				897.8,712.9 897.8,662.9 			"/>
		</g>
	</g>
	<g opacity="0.25">
		<g>
			<polygon fill="#EDEBDD" points="799.5,662.9 764.6,621.7 784,621.7 751.8,583.7 771.8,583.7 745.4,552.4 757.7,552.4
				737.4,528.4 718.9,552.4 731.4,552.4 707.3,583.7 727,583.7 697.8,621.7 716,621.7 684.3,662.9 737.5,662.9 737.5,712.9
				746.3,712.9 746.3,662.9 			"/>
		</g>
	</g>
	<g>
		<g>
			<polygon fill="#EDEBDD" points="913.1,639 857.1,572.8 888.2,572.8 836.6,511.9 868.7,511.9 826.3,461.7 846.1,461.7
				813.5,423.2 783.8,461.7 803.8,461.7 765.3,511.9 796.8,511.9 749.9,572.8 779.2,572.8 728.3,639 813.7,639 813.7,719 827.7,719
				827.7,639 			"/>
		</g>
	</g>
	<g>
		<g>
			<rect x="729.9" y="715.1" fill="#EDEBDD" width="181.7" height="7.8"/>
		</g>
	</g>
</g>
<g>
	<g opacity="0.25">
		<g>
			<polygon fill="#EDEBDD" points="642.2,619.1 578.9,544.2 614.1,544.2 555.7,475.3 592.1,475.3 544.1,418.5 566.4,418.5
				529.5,374.9 495.9,418.5 518.6,418.5 475,475.3 510.7,475.3 457.6,544.2 490.8,544.2 433.2,619.1 529.8,619.1 529.8,709.7
				545.7,709.7 545.7,619.1 			"/>
		</g>
	</g>
	<g opacity="0.25">
		<g>
			<polygon fill="#EDEBDD" points="367.4,619.1 304,544.2 339.2,544.2 280.8,475.3 317.2,475.3 269.2,418.5 291.6,418.5
				254.7,374.9 221.1,418.5 243.7,418.5 200.1,475.3 235.8,475.3 182.7,544.2 215.9,544.2 158.3,619.1 254.9,619.1 254.9,709.7
				270.7,709.7 270.7,619.1 			"/>
		</g>
	</g>
	<g>
		<g>
			<polygon fill="#EDEBDD" points="573.4,575.6 471.9,455.6 528.3,455.6 434.7,345 493,345 416.1,254 451.9,254 392.7,184.1
				338.9,254 375.2,254 305.3,345 362.5,345 277.4,455.6 330.6,455.6 238.2,575.6 393.1,575.6 393.1,720.8 418.6,720.8 418.6,575.6
							"/>
		</g>
	</g>
	<g>
		<g>
			<rect x="241" y="713.8" fill="#EDEBDD" width="329.7" height="14.1"/>
		</g>
	</g>
</g>
<g>
	<g>
		<g>
			<path fill="#E5E0CD" d="M1110.2,494.9c-7.4,7.5-18.7,8.7-27.5,3.8c-0.3,0.4-0.6,0.8-0.9,1.3c-1.7,2.2-3.5,4.1-5.3,6.1
				l-11.9,216.7h61.9l-12.4-225.6c-1.1-0.9-2.3-1.8-3.5-2.8C1110.5,494.6,1110.4,494.8,1110.2,494.9z"/>
		</g>
	</g>
	<g>
		<g>
			<path fill="#E5E0CD" d="M1095.5,394.8c0.3-0.3,0.6-0.6,0.9-0.9c0-0.4,0-0.8,0-1.2L1095.5,394.8z"/>
		</g>
	</g>
	<g>
		<g>
			<path fill="#E5E0CD" d="M1148.1,510.2c0.1,0.4,0.1,0.8,0.2,1.2c0.3,0.2,0.6,0.5,1,0.8L1148.1,510.2z"/>
		</g>
	</g>
	<g>
		<g>
			<path fill="#E5E0CD" d="M1178.4,497.5l-10.4-9.9c-8.8-8.3-19.1-14.5-30.9-19c-5.9-2.1-12.4-3.5-19.3-4.3c-0.4,0-0.9-0.1-1.3-0.1
				c-0.5-5.2-2.6-10.4-6.7-14.3c-3.9-3.8-8.8-5.9-13.9-6.3c0.1-5,0.4-10,0.4-15c0-11.6,0.4-23.2,0-34.8c-0.3,0.4-0.6,0.6-0.9,0.9
				l0.9-2.1c0,0.4,0,0.8,0,1.2c12-12.8,24.4-25.3,36-38.6l-2.2-2.2c-6.7-0.2-12.4,0.5-17.7,1.6c-5.4,0.9-10.2,2.6-14.9,4.2
				c-9.2,3.7-17.1,8.5-24,14.3l-6.6,5.5l-1.4,14.2c-1.2,12,0.2,24,3.9,36c1.9,6,4.8,11.9,8.3,17.9c0.4,0.7,1,1.4,1.5,2.1
				c-0.6,0.5-1.2,0.8-1.7,1.4c-5.7,5.8-7.7,14-5.8,21.5c-4.5,1.6-9.1,3.1-13.6,4.8c-10.8,4.1-21.8,7.9-32.5,12.4
				c-16.3-6.7-32.3-13.8-48.9-19.8l-1.3,2.9c2.2,6.2,4.8,11.4,7.8,16c2.9,4.7,6.1,8.5,9.3,12.4c6.7,7.3,14,13,21.9,17.4l7.5,4.2
				l13.8-3.8c11.7-3.2,22.4-8.7,32.2-16.5c2.9-2.4,5.7-5.1,8.4-8.1c1.8-2,3.6-3.9,5.3-6.1c0.3-0.4,0.6-0.8,0.9-1.3
				c8.8,5,20.2,3.8,27.5-3.8c0.1-0.2,0.2-0.3,0.4-0.5c1.2,0.9,2.3,1.9,3.5,2.8c2.3,1.9,4.4,3.7,6.7,5.5c9.2,7.1,18.1,14.6,27.5,21.3
				c-0.1-0.4-0.1-0.8-0.2-1.2l1.1,2c-0.3-0.2-0.6-0.5-1-0.8c2.7,17.4,5,34.9,8.4,52.1l3.1-0.4c4.2-5.1,7.2-10.1,9.6-14.9
				c2.5-4.9,4.1-9.7,5.7-14.4c2.8-9.4,3.8-18.7,3.5-27.8L1178.4,497.5z"/>
		</g>
	</g>
</g>
<g>
	<g>
		<g>
			<path fill="#DCD6BC" d="M983.9,413.2c-10,10.2-25.4,11.8-37.4,5.1c-0.4,0.6-0.8,1.1-1.3,1.8c-2.3,3-4.8,5.6-7.3,8.3l-16.1,294.4
				h84.1l-16.8-306.5c-1.6-1.2-3.1-2.5-4.7-3.8C984.2,412.7,984.1,413,983.9,413.2z"/>
		</g>
	</g>
	<g>
		<g>
			<path fill="#DCD6BC" d="M963.9,277.1c0.4-0.4,0.8-0.8,1.3-1.3c0-0.5,0-1,0-1.6L963.9,277.1z"/>
		</g>
	</g>
	<g>
		<g>
			<path fill="#DCD6BC" d="M1035.4,434c0.1,0.6,0.1,1.1,0.3,1.7c0.4,0.3,0.8,0.7,1.3,1L1035.4,434z"/>
		</g>
	</g>
	<g>
		<g>
			<path fill="#DCD6BC" d="M1076.5,416.7l-14.1-13.4c-11.9-11.2-25.9-19.8-41.9-25.7c-8-2.9-16.8-4.8-26.2-5.9
				c-0.6,0-1.2-0.1-1.7-0.1c-0.7-7.1-3.6-14.1-9.1-19.5c-5.3-5.2-12-8-18.9-8.6c0.1-6.8,0.5-13.6,0.5-20.4c0-15.7,0.5-31.5,0-47.3
				c-0.4,0.5-0.8,0.8-1.3,1.3l1.2-2.9c0,0.6,0,1.1,0,1.6c16.3-17.4,33.2-34.4,48.9-52.5l-3-3c-9-0.3-16.9,0.6-24.1,2.2
				c-7.3,1.3-13.8,3.6-20.2,5.8c-12.5,5-23.2,11.5-32.7,19.4l-9,7.5l-1.9,19.4c-1.6,16.3,0.3,32.6,5.4,48.8
				c2.6,8.1,6.5,16.2,11.3,24.4c0.6,1,1.4,1.9,2,2.8c-0.8,0.7-1.6,1.1-2.3,1.9c-7.8,7.9-10.4,19.1-7.9,29.2
				c-6.1,2.2-12.3,4.3-18.4,6.6c-14.7,5.6-29.6,10.7-44.1,16.8c-22.1-9.1-43.9-18.8-66.5-27l-1.7,3.9c2.9,8.5,6.6,15.5,10.5,21.7
				c3.9,6.4,8.3,11.6,12.6,16.8c9.1,9.9,19.1,17.6,29.8,23.6l10.1,5.7l18.8-5.1c15.8-4.3,30.4-11.9,43.8-22.4c4-3.2,7.8-7,11.4-10.9
				c2.5-2.7,4.9-5.4,7.3-8.3c0.4-0.6,0.9-1.1,1.3-1.8c12,6.8,27.4,5.1,37.4-5.1c0.2-0.2,0.3-0.4,0.5-0.6c1.6,1.3,3.2,2.5,4.7,3.8
				c3.1,2.6,6,5.1,9.1,7.5c12.5,9.6,24.6,19.8,37.4,29c-0.1-0.6-0.2-1.1-0.3-1.7l1.6,2.7c-0.5-0.3-0.9-0.7-1.3-1
				c3.7,23.6,6.8,47.4,11.4,70.8l4.3-0.6c5.7-6.9,9.8-13.7,13.1-20.2c3.4-6.6,5.6-13.1,7.8-19.6c3.7-12.8,5.2-25.4,4.7-37.7
				L1076.5,416.7z"/>
		</g>
	</g>
</g>
<g id="interested-in-dancing">
	<rect x="1021.1" y="632.1" fill="#4D4741" width="50.7" height="90.8"/>
	<g>
		<text transform="matrix(1 0 0 1 1012.1746 753.4795)" fill="#4D4741" font-family="'Calibri-Light'" font-size="22.1599">Dancing</text>
	</g>
	<g>
		<g>
			<g>
				<g>
					<path fill="#4D4741" d="M1050.8,633.2l-1.6-1.7c-1.1-1.4-2.1-3.3-3-5.1c-0.8-1.8-1.5-3.7-1.9-5.7c-0.7-3.9-0.3-7.9,1.7-11.4
						c0.5-0.9,1.1-1.6,1.8-2.5c0.7-0.9,1.4-2,1.9-3.1c1.1-2.1,1.8-4.4,1.9-6.9c0.2-4.9-2.2-9.2-5.5-12.1c2.8,3.4,4.4,7.9,3.7,12
						c-0.3,2-1.3,3.9-2.4,5.6c-0.6,0.8-1.3,1.7-2,2.3c-0.7,0.7-1.7,1.7-2.4,2.6c-3.1,3.9-4.3,9.1-4,14c0.1,2.4,0.6,4.9,1.3,7.2
						c0.5,1.7,1.1,3.3,1.8,4.9h-6.1v2.5h20.4v-2.5h-5.3C1050.9,633.5,1050.9,633.4,1050.8,633.2z"/>
				</g>
			</g>
			<g>
				<g>
					<path fill="#4D4741" d="M1049.3,611.8c-2.7,2.7-3.2,6.8-0.9,9s6.2,1.8,9-0.9c2.7-2.7,3.7-11.7,3.7-11.7S1052,609,1049.3,611.8z
						"/>
				</g>
			</g>
			<g>
				<g>
					<path fill="#4D4741" d="M1044.5,603.3c2.2-2.2,1.8-6.2-0.9-9c-2.7-2.7-11.7-3.7-11.7-3.7s0.9,9,3.7,11.7
						S1042.3,605.5,1044.5,603.3z"/>
				</g>
			</g>
		</g>
	</g>
</g>
<g id="interested-in-music">
	<rect x="908.3" y="632.1" fill="#4D4741" width="50.7" height="90.8"/>
	<g>
		<text transform="matrix(1 0 0 1 907.2908 753.4795)" fill="#4D4741" font-family="'Calibri-Light'" font-size="22.1599">Music</text>
	</g>
	<g>
		<g>
			<g>
				<g>
					<path fill="#4D4741" d="M938,633.2l-1.6-1.7c-1.1-1.4-2.1-3.3-3-5.1c-0.8-1.8-1.5-3.7-1.9-5.7c-0.7-3.9-0.3-7.9,1.7-11.4
						c0.5-0.9,1.1-1.6,1.8-2.5c0.7-0.9,1.4-2,1.9-3.1c1.1-2.1,1.8-4.4,1.9-6.9c0.2-4.9-2.2-9.2-5.5-12.1c2.8,3.4,4.4,7.9,3.7,12
						c-0.3,2-1.3,3.9-2.4,5.6c-0.6,0.8-1.3,1.7-2,2.3c-0.7,0.7-1.7,1.7-2.4,2.6c-3.1,3.9-4.3,9.1-4,14c0.1,2.4,0.6,4.9,1.3,7.2
						c0.5,1.7,1.1,3.3,1.8,4.9h-6.1v2.5h20.4v-2.5h-5.3C938.1,633.5,938.1,633.4,938,633.2z"/>
				</g>
			</g>
			<g>
				<g>
					<path fill="#4D4741" d="M936.5,611.8c-2.7,2.7-3.2,6.8-0.9,9c2.2,2.2,6.2,1.8,9-0.9c2.7-2.7,3.7-11.7,3.7-11.7
						S939.3,609,936.5,611.8z"/>
				</g>
			</g>
			<g>
				<g>
					<path fill="#4D4741" d="M931.8,603.3c2.2-2.2,1.8-6.2-0.9-9c-2.7-2.7-11.7-3.7-11.7-3.7s0.9,9,3.7,11.7
						S929.6,605.5,931.8,603.3z"/>
				</g>
			</g>
		</g>
	</g>
</g>
<g id="interested-in-drawing">
	<rect x="794.9" y="632.1" fill="#4D4741" width="50.7" height="90.8"/>
	<g>
		<text transform="matrix(1 0 0 1 784.4384 753.4795)" fill="#4D4741" font-family="'Calibri-Light'" font-size="22.1599">Drawing</text>
	</g>
	<g>
		<g>
			<g>
				<g>
					<path fill="#4D4741" d="M829.1,633.2l-1.6-1.7c-1.1-1.4-2.1-3.3-3-5.1c-0.8-1.8-1.5-3.7-1.9-5.7c-0.7-3.9-0.3-7.9,1.7-11.4
						c0.5-0.9,1.1-1.6,1.8-2.5c0.7-0.9,1.4-2,1.9-3.1c1.1-2.1,1.8-4.4,1.9-6.9c0.2-4.9-2.2-9.2-5.5-12.1c2.8,3.4,4.4,7.9,3.7,12
						c-0.3,2-1.3,3.9-2.4,5.6c-0.6,0.8-1.3,1.7-2,2.3c-0.7,0.7-1.7,1.7-2.4,2.6c-3.1,3.9-4.3,9.1-4,14c0.1,2.4,0.6,4.9,1.3,7.2
						c0.5,1.7,1.1,3.3,1.8,4.9h-6.1v2.5h20.4v-2.5h-5.3C829.3,633.5,829.2,633.4,829.1,633.2z"/>
				</g>
			</g>
			<g>
				<g>
					<path fill="#4D4741" d="M827.7,611.8c-2.7,2.7-3.2,6.8-0.9,9c2.2,2.2,6.2,1.8,9-0.9c2.7-2.7,3.7-11.7,3.7-11.7
						S830.4,609,827.7,611.8z"/>
				</g>
			</g>
			<g>
				<g>
					<path fill="#4D4741" d="M822.8,603.3c2.2-2.2,1.8-6.2-0.9-9c-2.7-2.7-11.7-3.7-11.7-3.7s0.9,9,3.7,11.7
						S820.6,605.5,822.8,603.3z"/>
				</g>
			</g>
		</g>
	</g>
</g>
<g id="interested-in-bsps">
	<rect x="683.5" y="632.1" fill="#4D4741" width="50.7" height="90.8"/>
	<g>
		<text transform="matrix(1 0 0 1 688.8615 753.4795)" fill="#4D4741" font-family="'Calibri-Light'" font-size="22.1599">BSPs</text>
	</g>
	<g>
		<g>
			<g>
				<g>
					<path fill="#4D4741" d="M715.6,633.2l-1.6-1.7c-1.1-1.4-2.1-3.3-3-5.1c-0.8-1.8-1.5-3.7-1.9-5.7c-0.7-3.9-0.3-7.9,1.7-11.4
						c0.5-0.9,1.1-1.6,1.8-2.5c0.7-0.9,1.4-2,1.9-3.1c1.1-2.1,1.8-4.4,1.9-6.9c0.2-4.9-2.2-9.2-5.5-12.1c2.8,3.4,4.4,7.9,3.7,12
						c-0.3,2-1.3,3.9-2.4,5.6c-0.6,0.8-1.3,1.7-2,2.3c-0.7,0.7-1.7,1.7-2.4,2.6c-3.1,3.9-4.3,9.1-4,14c0.1,2.4,0.6,4.9,1.3,7.2
						c0.5,1.7,1.1,3.3,1.8,4.9h-6.1v2.5H721v-2.5h-5.3C715.8,633.5,715.7,633.4,715.6,633.2z"/>
				</g>
			</g>
			<g>
				<g>
					<path fill="#4D4741" d="M714.2,611.8c-2.7,2.7-3.2,6.8-0.9,9c2.2,2.2,6.2,1.8,9-0.9c2.7-2.7,3.7-11.7,3.7-11.7
						S716.9,609,714.2,611.8z"/>
				</g>
			</g>
			<g>
				<g>
					<path fill="#4D4741" d="M709.3,603.3c2.2-2.2,1.8-6.2-0.9-9c-2.7-2.7-11.7-3.7-11.7-3.7s0.9,9,3.7,11.7
						S707.1,605.5,709.3,603.3z"/>
				</g>
			</g>
		</g>
	</g>
</g>
<g id="interested-in-astrophysics">
	<rect x="576.6" y="632.1" fill="#4D4741" width="50.7" height="90.8"/>
	<g>
		<text transform="matrix(1 0 0 1 550.0226 753.4795)" fill="#4D4741" font-family="'Calibri-Light'" font-size="22.1599">Astrophysics</text>
	</g>
	<g>
		<g>
			<g>
				<g>
					<path fill="#4D4741" d="M606.3,633.2l-1.6-1.7c-1.1-1.4-2.1-3.3-3-5.1c-0.8-1.8-1.5-3.7-1.9-5.7c-0.7-3.9-0.3-7.9,1.7-11.4
						c0.5-0.9,1.1-1.6,1.8-2.5c0.7-0.9,1.4-2,1.9-3.1c1.1-2.1,1.8-4.4,1.9-6.9c0.2-4.9-2.2-9.2-5.5-12.1c2.8,3.4,4.4,7.9,3.7,12
						c-0.3,2-1.3,3.9-2.4,5.6c-0.6,0.8-1.3,1.7-2,2.3c-0.7,0.7-1.7,1.7-2.4,2.6c-3.1,3.9-4.3,9.1-4,14c0.1,2.4,0.6,4.9,1.3,7.2
						c0.5,1.7,1.1,3.3,1.8,4.9h-6.1v2.5h20.4v-2.5h-5.3C606.4,633.5,606.4,633.4,606.3,633.2z"/>
				</g>
			</g>
			<g>
				<g>
					<path fill="#4D4741" d="M604.8,611.8c-2.7,2.7-3.2,6.8-0.9,9s6.2,1.8,9-0.9c2.7-2.7,3.7-11.7,3.7-11.7S607.5,609,604.8,611.8z"
						/>
				</g>
			</g>
			<g>
				<g>
					<path fill="#4D4741" d="M600.1,603.3c2.2-2.2,1.8-6.2-0.9-9c-2.7-2.7-11.7-3.7-11.7-3.7s0.9,9,3.7,11.7
						S597.8,605.5,600.1,603.3z"/>
				</g>
			</g>
		</g>
	</g>
</g>
<g id="interested-in-design">
	<rect x="466.1" y="632.1" fill="#4D4741" width="50.7" height="90.8"/>
	<g>
		<text transform="matrix(1 0 0 1 462.0618 753.4795)" fill="#4D4741" font-family="'Calibri-Light'" font-size="22.1599">Design</text>
	</g>
	<g>
		<g>
			<g>
				<g>
					<path fill="#4D4741" d="M530.1,627c-3.6,0.6-6.1,3.6-5.6,6.5c0.5,3,3.9,4.7,7.5,4.1c3.6-0.6,9.2-7.2,9.2-7.2
						S533.7,626.3,530.1,627z"/>
				</g>
			</g>
			<g>
				<g>
					<path fill="#4D4741" d="M537.2,622.1c2.4-0.4,6.2-4.9,6.2-4.9s-5.2-2.7-7.6-2.3c-2.4,0.4-4.1,2.4-3.8,4.4
						C532.4,621.4,534.7,622.6,537.2,622.1z"/>
				</g>
			</g>
			<g>
				<g>
					<path fill="#4D4741" d="M527.3,617.5c2-0.4,3.3-2.6,2.7-5.1c-0.4-2.4-4.9-6.2-4.9-6.2s-2.7,5.2-2.3,7.6
						C523.4,616.1,525.3,617.8,527.3,617.5z"/>
				</g>
			</g>
			<g>
				<g>
					<path fill="#4D4741" d="M539.8,609.8c1.5-0.6,3.3-3.8,3.3-3.8s-3.6-1.1-5.1-0.5c-1.5,0.6-2.3,2-1.8,3.3
						C536.8,609.9,538.3,610.4,539.8,609.8z"/>
				</g>
			</g>
			<g>
				<g>
					<path fill="#4D4741" d="M530.3,605.6c0.6,1.5,2,2.3,3.3,1.8c1.2-0.5,1.7-2.1,1.1-3.5c-0.6-1.5-3.8-3.3-3.8-3.3
						S529.8,604.2,530.3,605.6z"/>
				</g>
			</g>
			<g>
				<g>
					<path fill="#4D4741" d="M522.8,623.1c-0.6-3.6-7.2-9.2-7.2-9.2s-4.1,7.6-3.4,11.2c0.6,3.6,3.6,6.1,6.5,5.6
						C521.7,630,523.6,626.6,522.8,623.1z"/>
				</g>
			</g>
			<g>
				<g>
					<path fill="#4D4741" d="M539,599.4c-3.2,7.1-6.5,14.1-10.3,20.9c-1.9,3.4-3.9,6.6-6.2,9.8c-1.2,1.6-2.3,3.1-3.6,4.5
						c-1.3,1.4-2.6,2.8-4,3.7l0.8,1.5c1.9-1.3,3.1-2.7,4.3-4.3c1.3-1.6,2.4-3.2,3.5-4.7c2.1-3.3,4.1-6.6,5.9-10.1
						C533,613.8,536.1,606.6,539,599.4z"/>
				</g>
			</g>
		</g>
	</g>
</g>
<g id="interested-in-it">
	<rect x="354.4" y="632.1" fill="#4D4741" width="50.7" height="90.8"/>
	<g>
		<text transform="matrix(1 0 0 1 372.551 753.4795)" fill="#4D4741" font-family="'Calibri-Light'" font-size="22.1599">IT</text>
	</g>
	<g>
		<g>
			<g>
				<g>
					<path fill="#4D4741" d="M384,633.2l-1.6-1.7c-1.1-1.4-2.1-3.3-3-5.1c-0.8-1.8-1.5-3.7-1.9-5.7c-0.7-3.9-0.3-7.9,1.7-11.4
						c0.5-0.9,1.1-1.6,1.8-2.5s1.4-2,1.9-3.1c1.1-2.1,1.8-4.4,1.9-6.9c0.2-4.9-2.2-9.2-5.5-12.1c2.8,3.4,4.4,7.9,3.7,12
						c-0.3,2-1.3,3.9-2.4,5.6c-0.6,0.8-1.3,1.7-2,2.3c-0.7,0.7-1.7,1.7-2.4,2.6c-3.1,3.9-4.3,9.1-4,14c0.1,2.4,0.6,4.9,1.3,7.2
						c0.5,1.7,1.1,3.3,1.8,4.9h-6.1v2.5h20.4v-2.5h-5.3C384.1,633.5,384.1,633.4,384,633.2z"/>
				</g>
			</g>
			<g>
				<g>
					<path fill="#4D4741" d="M382.6,611.8c-2.7,2.7-3.2,6.8-0.9,9s6.2,1.8,9-0.9c2.7-2.7,3.7-11.7,3.7-11.7S385.3,609,382.6,611.8z"
						/>
				</g>
			</g>
			<g>
				<g>
					<path fill="#4D4741" d="M377.8,603.3c2.2-2.2,1.8-6.2-0.9-9c-2.7-2.7-11.7-3.7-11.7-3.7s0.9,9,3.7,11.7
						C371.6,605.1,375.6,605.5,377.8,603.3z"/>
				</g>
			</g>
		</g>
	</g>
</g>
<rect y="722" fill="#D3CCAB" width="1280" height="7.2"/>
<g>
	<polygon fill="#DA6D5E" points="259.9,148.1 259.9,181.5 247.8,181.5 247.8,722.9 197.1,722.9 197.1,181.5 184.9,181.5
		184.9,148.1 	"/>
	<g>
		<text transform="matrix(1 0 0 1 199.2101 753.4795)" fill="#DA6D5E" font-family="'Calibri-Bold'" font-size="22.1599">Love</text>
	</g>
	<g>
		<g>
			<g>
				<g>
					<path fill="#DA6D5E" d="M255.6,274.7c-2,2.7-4,5.5-6,8.5c0,0-10.2,22.5,7.7,33.8c17.9,11.3,51.9,32.6,51.9,32.6
						s28.1,19.5,42-2.5c0,0,9.6-15.2,17.6-32.3l69.3-22.8c0,0,24.5,40,12.7-8.8c-12-49.7-14.9-2.5-14.9-2.5L377,294.2
						c3.5-11.3,4.1-20.9-1.8-24.6l-62.5-39.1c0,0-1.8-1.7-6-1.5c-1.4-1.2-2.7-2.3-4.3-3.3c-16.3-10.1-37.7-5.3-47.8,11
						C247.1,248.8,248,263.7,255.6,274.7z M260.3,240.1c8.2-13.1,25.6-17.1,38.7-9c-8.4,3.9-21.1,13.9-39.1,37.9
						C254.8,260.3,254.5,249.2,260.3,240.1z"/>
				</g>
			</g>
		</g>
	</g>
	<circle fill="none" stroke="#DA6D5E" stroke-width="8" stroke-miterlimit="10" cx="247.4" cy="235.4" r="17.6"/>
</g>
</svg>
