<svg version="1.1" id="Layer_1" xmlns="http://www.w3.org/2000/svg" xmlns:xlink="http://www.w3.org/1999/xlink" x="0px" y="0px"
	 viewBox="15 122 927 469" enable-background="new 15 122 927 469" xml:space="preserve">
<g>
	<g opacity="0.25">
		<g>
			<polygon fill="#EDEBDD" points="251.5,501.1 226.3,471.2 240.3,471.2 216.9,443.6 231.5,443.6 212.3,420.9 221.3,420.9
				206.5,403.5 193.1,420.9 202.2,420.9 184.7,443.6 199,443.6 177.8,471.2 191,471.2 168,501.1 206.6,501.1 206.6,537.3
				212.9,537.3 212.9,501.1 			"/>
		</g>
	</g>
	<g opacity="0.25">
		<g>
			<polygon fill="#EDEBDD" points="141.8,501.1 116.4,471.2 130.5,471.2 107.2,443.6 121.7,443.6 102.6,420.9 111.4,420.9
				96.8,403.5 83.3,420.9 92.3,420.9 74.9,443.6 89.2,443.6 68,471.2 81.2,471.2 58.3,501.1 96.8,501.1 96.8,537.3 103.1,537.3
				103.1,501.1 			"/>
		</g>
	</g>
	<g>
		<g>
			<polygon fill="#EDEBDD" points="224.1,483.7 183.5,435.8 206,435.8 168.6,391.6 191.9,391.6 161.2,355.3 175.5,355.3
				151.8,327.3 130.3,355.3 144.9,355.3 116.9,391.6 139.8,391.6 105.8,435.8 127.1,435.8 90.2,483.7 152,483.7 152,541.7
				162.2,541.7 162.2,483.7 			"/>
		</g>
	</g>
	<g>
		<g>
			<rect x="91.3" y="538.9" fill="#EDEBDD" width="131.7" height="5.7"/>
		</g>
	</g>
</g>
<g>
	<g opacity="0.25">
		<g>
			<polygon fill="#E3DEC9" points="594.7,493.7 563.4,456.8 580.8,456.8 552,422.7 570,422.7 546.3,394.7 557.3,394.7 539.1,373.2
				522.5,394.7 533.7,394.7 512.2,422.7 529.8,422.7 503.6,456.8 520,456.8 491.5,493.7 539.2,493.7 539.2,538.4 547.1,538.4
				547.1,493.7 			"/>
		</g>
	</g>
	<g opacity="0.25">
		<g>
			<polygon fill="#E3DEC9" points="459.1,493.7 427.9,456.8 445.2,456.8 416.4,422.7 434.4,422.7 410.7,394.7 421.8,394.7
				403.6,373.2 387,394.7 398.2,394.7 376.6,422.7 394.3,422.7 368.1,456.8 384.4,456.8 356,493.7 403.6,493.7 403.6,538.4
				411.5,538.4 411.5,493.7 			"/>
		</g>
	</g>
	<g>
		<g>
			<polygon fill="#E3DEC9" points="560.7,472.2 510.7,413 538.5,413 492.3,358.5 521.1,358.5 483.1,313.6 500.8,313.6 471.6,279.2
				445.1,313.6 463,313.6 428.5,358.5 456.8,358.5 414.8,413 441,413 395.4,472.2 471.8,472.2 471.8,543.8 484.3,543.8 484.3,472.2
							"/>
		</g>
	</g>
	<g>
		<g>
			<rect x="396.8" y="540.3" fill="#E3DEC9" width="162.6" height="7"/>
		</g>
	</g>
</g>
<g>
	<g opacity="0.25">
		<g>
			<polygon fill="#EAE6D7" points="697.7,502.5 673.3,473.7 686.8,473.7 664.3,447.1 678.3,447.1 659.8,425.2 668.4,425.2
				654.2,408.4 641.3,425.2 650,425.2 633.2,447.1 647,447.1 626.4,473.7 639.3,473.7 617.1,502.5 654.3,502.5 654.3,537.5
				660.5,537.5 660.5,502.5 			"/>
		</g>
	</g>
	<g opacity="0.25">
		<g>
			<polygon fill="#EAE6D7" points="591.6,502.5 567.2,473.7 580.8,473.7 558.3,447.1 572.3,447.1 553.8,425.2 562.4,425.2
				548.2,408.4 535.2,425.2 544,425.2 527.1,447.1 540.9,447.1 520.5,473.7 533.2,473.7 511,502.5 548.3,502.5 548.3,537.5
				554.4,537.5 554.4,502.5 			"/>
		</g>
	</g>
	<g>
		<g>
			<polygon fill="#EAE6D7" points="671.2,485.8 632,439.5 653.7,439.5 617.6,396.8 640.1,396.8 610.4,361.7 624.3,361.7
				601.5,334.7 580.7,361.7 594.7,361.7 567.7,396.8 589.8,396.8 556.9,439.5 577.4,439.5 541.8,485.8 601.6,485.8 601.6,541.8
				611.4,541.8 611.4,485.8 			"/>
		</g>
	</g>
	<g>
		<g>
			<rect x="542.9" y="539.1" fill="#EAE6D7" width="127.2" height="5.5"/>
		</g>
	</g>
</g>
<g>
	<g opacity="0.25">
		<g>
			<polygon fill="#EDEBDD" points="481.5,471.9 437.2,419.4 461.9,419.4 421,371.2 446.5,371.2 412.9,331.4 428.5,331.4
				402.6,300.9 379.1,331.4 395,331.4 364.5,371.2 389.5,371.2 352.3,419.4 375.6,419.4 335.2,471.9 402.9,471.9 402.9,535.3
				414,535.3 414,471.9 			"/>
		</g>
	</g>
	<g opacity="0.25">
		<g>
			<polygon fill="#EDEBDD" points="289.2,471.9 244.8,419.4 269.4,419.4 228.6,371.2 254,371.2 220.4,331.4 236.1,331.4
				210.3,300.9 186.8,331.4 202.6,331.4 172.1,371.2 197.1,371.2 159.9,419.4 183.1,419.4 142.8,471.9 210.4,471.9 210.4,535.3
				221.5,535.3 221.5,471.9 			"/>
		</g>
	</g>
	<g>
		<g>
			<polygon fill="#EDEBDD" points="433.4,441.4 362.3,357.4 401.8,357.4 336.3,280 377.1,280 323.3,216.3 348.3,216.3 306.9,167.4
				269.2,216.3 294.6,216.3 245.7,280 285.8,280 226.2,357.4 263.4,357.4 198.7,441.4 307.2,441.4 307.2,543.1 325,543.1 325,441.4
							"/>
		</g>
	</g>
	<g>
		<g>
			<rect x="200.7" y="538.2" fill="#EDEBDD" width="230.8" height="9.9"/>
		</g>
	</g>
</g>
<g>
	<g>
		<g>
			<path fill="#DCD6BC" d="M809.1,384.9c-5.2,5.3-13.1,6.1-19.3,2.7c-0.2,0.3-0.4,0.6-0.6,0.9c-1.2,1.5-2.5,2.9-3.7,4.3l-8.3,151.7
				h43.3l-8.6-158c-0.8-0.6-1.6-1.3-2.5-2C809.3,384.7,809.3,384.9,809.1,384.9z"/>
		</g>
	</g>
	<g>
		<g>
			<path fill="#DCD6BC" d="M798.8,314.9c0.2-0.2,0.4-0.4,0.6-0.6c0-0.3,0-0.6,0-0.8L798.8,314.9z"/>
		</g>
	</g>
	<g>
		<g>
			<path fill="#DCD6BC" d="M835.7,395.6c0.1,0.3,0.1,0.6,0.1,0.8c0.2,0.1,0.4,0.4,0.7,0.6L835.7,395.6z"/>
		</g>
	</g>
	<g>
		<g>
			<path fill="#DCD6BC" d="M856.9,386.8l-7.3-6.9c-6.2-5.8-13.4-10.1-21.6-13.3c-4.1-1.5-8.7-2.4-13.5-3c-0.3,0-0.6-0.1-0.9-0.1
				c-0.4-3.6-1.8-7.3-4.7-10c-2.7-2.7-6.2-4.1-9.7-4.4c0.1-3.5,0.3-7,0.3-10.5c0-8.1,0.3-16.2,0-24.4c-0.2,0.3-0.4,0.4-0.6,0.6
				l0.6-1.5c0,0.3,0,0.6,0,0.8c8.4-9,17.1-17.7,25.2-27l-1.5-1.5c-4.7-0.1-8.7,0.3-12.4,1.1c-3.8,0.6-7.1,1.8-10.4,2.9
				c-6.4,2.6-12,5.9-16.8,10l-4.6,3.9l-1,9.9c-0.8,8.4,0.1,16.8,2.7,25.2c1.3,4.2,3.4,8.3,5.8,12.5c0.3,0.5,0.7,1,1.1,1.5
				c-0.4,0.4-0.8,0.6-1.2,1c-4,4.1-5.4,9.8-4.1,15.1c-3.2,1.1-6.4,2.2-9.5,3.4c-7.6,2.9-15.3,5.5-22.8,8.7
				c-11.4-4.7-22.6-9.7-34.2-13.9l-0.9,2c1.5,4.3,3.4,8,5.5,11.2c2,3.3,4.3,6,6.5,8.7c4.7,5.1,9.8,9.1,15.3,12.2l5.3,2.9l9.7-2.7
				c8.2-2.2,15.7-6.1,22.5-11.6c2-1.7,4-3.6,5.9-5.7c1.3-1.4,2.5-2.7,3.7-4.3c0.2-0.3,0.4-0.6,0.6-0.9c6.2,3.5,14.1,2.7,19.3-2.7
				c0.1-0.1,0.1-0.2,0.3-0.4c0.8,0.6,1.6,1.3,2.5,2c1.6,1.3,3.1,2.6,4.7,3.9c6.4,5,12.7,10.2,19.3,14.9c-0.1-0.3-0.1-0.6-0.1-0.8
				l0.8,1.4c-0.2-0.1-0.4-0.3-0.7-0.6c1.9,12.2,3.5,24.4,5.9,36.5l2.2-0.3c2.9-3.6,5-7.1,6.7-10.4c1.8-3.4,2.9-6.8,4-10.1
				c2-6.6,2.7-13.1,2.4-19.5L856.9,386.8z"/>
		</g>
	</g>
</g>
<g>
	<g>
		<g>
			<path fill="#D3CCAB" d="M720.7,327.7c-7,7.1-17.8,8.3-26.2,3.6c-0.3,0.4-0.6,0.8-0.9,1.3c-1.6,2.1-3.4,3.9-5.1,5.8l-11.2,206.1
				h58.9l-11.8-214.6c-1.1-0.8-2.2-1.8-3.3-2.7C720.9,327.4,720.9,327.6,720.7,327.7z"/>
		</g>
	</g>
	<g>
		<g>
			<path fill="#D3CCAB" d="M706.7,232.5c0.3-0.3,0.6-0.6,0.9-0.9c0-0.4,0-0.7,0-1.1L706.7,232.5z"/>
		</g>
	</g>
	<g>
		<g>
			<path fill="#D3CCAB" d="M756.8,342.3c0.1,0.4,0.1,0.8,0.2,1.2c0.3,0.2,0.6,0.5,0.9,0.7L756.8,342.3z"/>
		</g>
	</g>
	<g>
		<g>
			<path fill="#D3CCAB" d="M785.5,330.2l-9.9-9.4c-8.3-7.8-18.1-13.9-29.3-18c-5.6-2-11.8-3.4-18.3-4.1c-0.4,0-0.8-0.1-1.2-0.1
				c-0.5-5-2.5-9.9-6.4-13.6c-3.7-3.6-8.4-5.6-13.2-6c0.1-4.8,0.3-9.5,0.3-14.3c0-11,0.4-22.1,0-33.1c-0.3,0.3-0.6,0.6-0.9,0.9
				l0.8-2c0,0.4,0,0.8,0,1.1c11.4-12.2,23.2-24.1,34.2-36.8l-2.1-2.1c-6.3-0.2-11.8,0.4-16.9,1.5c-5.1,0.9-9.7,2.5-14.1,4.1
				c-8.8,3.5-16.2,8.1-22.9,13.6l-6.3,5.3l-1.3,13.6c-1.1,11.4,0.2,22.8,3.8,34.2c1.8,5.7,4.5,11.3,7.9,17.1c0.4,0.7,1,1.3,1.4,2
				c-0.6,0.5-1.1,0.8-1.6,1.3c-5.5,5.5-7.3,13.4-5.5,20.4c-4.3,1.5-8.6,3-12.9,4.6c-10.3,3.9-20.7,7.5-30.9,11.8
				c-15.5-6.4-30.7-13.2-46.5-18.9l-1.2,2.7c2,6,4.6,10.9,7.3,15.2c2.7,4.5,5.8,8.1,8.8,11.8c6.4,6.9,13.4,12.3,20.9,16.5l7.1,4
				l13.2-3.6c11.1-3,21.3-8.3,30.7-15.7c2.8-2.2,5.5-4.9,8-7.6c1.8-1.9,3.4-3.8,5.1-5.8c0.3-0.4,0.6-0.8,0.9-1.3
				c8.4,4.8,19.2,3.6,26.2-3.6c0.1-0.1,0.2-0.3,0.4-0.4c1.1,0.9,2.2,1.8,3.3,2.7c2.2,1.8,4.2,3.6,6.4,5.3
				c8.8,6.7,17.2,13.9,26.2,20.3c-0.1-0.4-0.1-0.8-0.2-1.2l1.1,1.9c-0.3-0.2-0.6-0.5-0.9-0.7c2.6,16.5,4.8,33.2,8,49.6l3-0.4
				c4-4.8,6.9-9.6,9.2-14.1c2.4-4.6,3.9-9.2,5.5-13.7c2.6-9,3.6-17.8,3.3-26.4L785.5,330.2z"/>
		</g>
	</g>
</g>
<rect x="746.8" y="481" fill="#4D4741" width="35.5" height="63.6"/>
<g>
	<text transform="matrix(1 0 0 1 749.5223 575.7352)" fill="#4D4741" font-family="'Roboto', sans-serif" font-size="15.5119">Dan.</text>
</g>
<g>
	<g>
		<g>
			<g>
				<path fill="#4D4741" d="M767.6,481.7l-1.1-1.2c-0.8-1-1.5-2.3-2.1-3.6c-0.6-1.3-1-2.6-1.3-4c-0.5-2.7-0.2-5.5,1.2-8
					c0.3-0.6,0.8-1.1,1.3-1.8c0.5-0.6,1-1.4,1.3-2.2c0.8-1.5,1.3-3.1,1.3-4.8c0.1-3.4-1.5-6.4-3.8-8.5c2,2.4,3.1,5.5,2.6,8.4
					c-0.2,1.4-0.9,2.7-1.7,3.9c-0.4,0.6-0.9,1.2-1.4,1.6c-0.5,0.5-1.2,1.2-1.7,1.8c-2.2,2.7-3,6.4-2.8,9.8c0.1,1.7,0.4,3.4,0.9,5
					c0.3,1.2,0.8,2.3,1.3,3.4h-4.3v1.8h14.3v-1.8h-3.7C767.6,481.9,767.6,481.9,767.6,481.7z"/>
			</g>
		</g>
		<g>
			<g>
				<path fill="#4D4741" d="M766.5,466.8c-1.9,1.9-2.2,4.8-0.6,6.3s4.3,1.3,6.3-0.6c1.9-1.9,2.6-8.2,2.6-8.2
					S768.4,464.8,766.5,466.8z"/>
			</g>
		</g>
		<g>
			<g>
				<path fill="#4D4741" d="M763.1,460.8c1.5-1.5,1.3-4.3-0.6-6.3c-1.9-1.9-8.2-2.6-8.2-2.6s0.6,6.3,2.6,8.2
					S761.6,462.4,763.1,460.8z"/>
			</g>
		</g>
	</g>
</g>
<rect x="667.8" y="481" fill="#4D4741" width="35.5" height="63.6"/>
<g>
	<text transform="matrix(1 0 0 1 671.1036 575.7352)" fill="#4D4741" font-family="'Roboto', sans-serif" font-size="15.5119">Mus.</text>
</g>
<g>
	<g>
		<g>
			<g>
				<path fill="#4D4741" d="M688.6,481.7l-1.1-1.2c-0.8-1-1.5-2.3-2.1-3.6c-0.6-1.3-1-2.6-1.3-4c-0.5-2.7-0.2-5.5,1.2-8
					c0.4-0.6,0.8-1.1,1.3-1.8c0.5-0.6,1-1.4,1.3-2.2c0.8-1.5,1.3-3.1,1.3-4.8c0.1-3.4-1.5-6.4-3.9-8.5c2,2.4,3.1,5.5,2.6,8.4
					c-0.2,1.4-0.9,2.7-1.7,3.9c-0.4,0.6-0.9,1.2-1.4,1.6c-0.5,0.5-1.2,1.2-1.7,1.8c-2.2,2.7-3,6.4-2.8,9.8c0.1,1.7,0.4,3.4,0.9,5
					c0.3,1.2,0.8,2.3,1.3,3.4h-4.3v1.8h14.3v-1.8h-3.7C688.7,481.9,688.7,481.9,688.6,481.7z"/>
			</g>
		</g>
		<g>
			<g>
				<path fill="#4D4741" d="M687.5,466.8c-1.9,1.9-2.2,4.8-0.6,6.3c1.5,1.5,4.3,1.3,6.3-0.6c1.9-1.9,2.6-8.2,2.6-8.2
					S689.5,464.8,687.5,466.8z"/>
			</g>
		</g>
		<g>
			<g>
				<path fill="#4D4741" d="M684.3,460.8c1.5-1.5,1.3-4.3-0.6-6.3c-1.9-1.9-8.2-2.6-8.2-2.6s0.6,6.3,2.6,8.2
					C680,462,682.7,462.4,684.3,460.8z"/>
			</g>
		</g>
	</g>
</g>
<rect x="588.4" y="481" fill="#4D4741" width="35.5" height="63.6"/>
<g>
	<text transform="matrix(1 0 0 1 592.1074 575.7352)" fill="#4D4741" font-family="'Roboto', sans-serif" font-size="15.5119">Dra.</text>
</g>
<g>
	<g>
		<g>
			<g>
				<path fill="#4D4741" d="M612.4,481.7l-1.1-1.2c-0.8-1-1.5-2.3-2.1-3.6c-0.6-1.3-1-2.6-1.3-4c-0.5-2.7-0.2-5.5,1.2-8
					c0.3-0.6,0.8-1.1,1.3-1.8c0.5-0.6,1-1.4,1.3-2.2c0.8-1.5,1.3-3.1,1.3-4.8c0.1-3.4-1.5-6.4-3.8-8.5c2,2.4,3.1,5.5,2.6,8.4
					c-0.2,1.4-0.9,2.7-1.7,3.9c-0.4,0.6-0.9,1.2-1.4,1.6c-0.5,0.5-1.2,1.2-1.7,1.8c-2.2,2.7-3,6.4-2.8,9.8c0.1,1.7,0.4,3.4,0.9,5
					c0.4,1.2,0.8,2.3,1.3,3.4H602v1.8h14.3v-1.8h-3.7C612.5,481.9,612.4,481.9,612.4,481.7z"/>
			</g>
		</g>
		<g>
			<g>
				<path fill="#4D4741" d="M611.4,466.8c-1.9,1.9-2.2,4.8-0.6,6.3c1.5,1.5,4.3,1.3,6.3-0.6c1.9-1.9,2.6-8.2,2.6-8.2
					S613.3,464.8,611.4,466.8z"/>
			</g>
		</g>
		<g>
			<g>
				<path fill="#4D4741" d="M608,460.8c1.5-1.5,1.3-4.3-0.6-6.3c-1.9-1.9-8.2-2.6-8.2-2.6s0.6,6.3,2.6,8.2
					C603.7,462,606.4,462.4,608,460.8z"/>
			</g>
		</g>
	</g>
</g>
<rect x="510.5" y="481" fill="#4D4741" width="35.5" height="63.6"/>
<g>
	<text transform="matrix(1 0 0 1 509.2031 575.7352)" fill="#4D4741" font-family="'Roboto', sans-serif" font-size="15.5119">BSPs</text>
</g>
<g>
	<g>
		<g>
			<g>
				<path fill="#4D4741" d="M532.9,481.7l-1.1-1.2c-0.8-1-1.5-2.3-2.1-3.6c-0.6-1.3-1.1-2.6-1.3-4c-0.5-2.7-0.2-5.5,1.2-8
					c0.3-0.6,0.8-1.1,1.3-1.8c0.5-0.6,1-1.4,1.3-2.2c0.8-1.5,1.3-3.1,1.3-4.8c0.1-3.4-1.5-6.4-3.8-8.5c2,2.4,3.1,5.5,2.6,8.4
					c-0.2,1.4-0.9,2.7-1.7,3.9c-0.4,0.6-0.9,1.2-1.4,1.6c-0.5,0.5-1.2,1.2-1.7,1.8c-2.2,2.7-3,6.4-2.8,9.8c0.1,1.7,0.4,3.4,0.9,5
					c0.4,1.2,0.8,2.3,1.3,3.4h-4.3v1.8h14.1v-1.8L532.9,481.7C533.1,481.9,533,481.9,532.9,481.7z"/>
			</g>
		</g>
		<g>
			<g>
				<path fill="#4D4741" d="M531.9,466.8c-1.9,1.9-2.2,4.8-0.6,6.3c1.5,1.5,4.3,1.3,6.3-0.6c1.9-1.9,2.6-8.2,2.6-8.2
					S533.8,464.8,531.9,466.8z"/>
			</g>
		</g>
		<g>
			<g>
				<path fill="#4D4741" d="M528.5,460.8c1.5-1.5,1.3-4.3-0.6-6.3c-1.9-1.9-8.2-2.6-8.2-2.6s0.6,6.3,2.6,8.2
					C524.2,462,527,462.4,528.5,460.8z"/>
			</g>
		</g>
	</g>
</g>
<rect x="435.6" y="481" fill="#4D4741" width="35.5" height="63.6"/>
<g>
	<text transform="matrix(1 0 0 1 440.0156 575.7352)" fill="#4D4741" font-family="'Roboto', sans-serif" font-size="15.5119">Ast.</text>
</g>
<g>
	<g>
		<g>
			<g>
				<path fill="#4D4741" d="M456.4,481.7l-1.1-1.2c-0.8-1-1.5-2.3-2.1-3.6c-0.6-1.3-1-2.6-1.3-4c-0.5-2.7-0.2-5.5,1.2-8
					c0.4-0.6,0.8-1.1,1.3-1.8c0.5-0.6,1-1.4,1.3-2.2c0.8-1.5,1.3-3.1,1.3-4.8c0.1-3.4-1.5-6.4-3.9-8.5c2,2.4,3.1,5.5,2.6,8.4
					c-0.2,1.4-0.9,2.7-1.7,3.9c-0.4,0.6-0.9,1.2-1.4,1.6c-0.5,0.5-1.2,1.2-1.7,1.8c-2.2,2.7-3,6.4-2.8,9.8c0.1,1.7,0.4,3.4,0.9,5
					c0.3,1.2,0.8,2.3,1.3,3.4H446v1.8h14.3v-1.8h-3.7C456.5,481.9,456.5,481.9,456.4,481.7z"/>
			</g>
		</g>
		<g>
			<g>
				<path fill="#4D4741" d="M455.4,466.8c-1.9,1.9-2.2,4.8-0.6,6.3s4.3,1.3,6.3-0.6c1.9-1.9,2.6-8.2,2.6-8.2
					S457.3,464.8,455.4,466.8z"/>
			</g>
		</g>
		<g>
			<g>
				<path fill="#4D4741" d="M452.1,460.8c1.5-1.5,1.3-4.3-0.6-6.3c-1.9-1.9-8.2-2.6-8.2-2.6s0.6,6.3,2.6,8.2
					S450.5,462.4,452.1,460.8z"/>
			</g>
		</g>
	</g>
</g>
<rect x="358.3" y="481" fill="#4D4741" width="35.5" height="63.6"/>
<g>
	<text transform="matrix(1 0 0 1 359.4433 575.7352)" fill="#4D4741" font-family="'Roboto', sans-serif" font-size="15.5119">Des.</text>
</g>
<g>
	<g>
		<g>
			<g>
				<path fill="#4D4741" d="M403.1,477.4c-2.5,0.4-4.3,2.5-3.9,4.5c0.4,2.1,2.7,3.3,5.3,2.9c2.5-0.4,6.4-5,6.4-5
					S405.6,476.9,403.1,477.4z"/>
			</g>
		</g>
		<g>
			<g>
				<path fill="#4D4741" d="M408,474c1.7-0.3,4.3-3.4,4.3-3.4s-3.6-1.9-5.3-1.6c-1.7,0.3-2.9,1.7-2.7,3.1
					C404.7,473.5,406.3,474.3,408,474z"/>
			</g>
		</g>
		<g>
			<g>
				<path fill="#4D4741" d="M401.1,470.8c1.4-0.3,2.3-1.8,1.9-3.6c-0.3-1.7-3.4-4.3-3.4-4.3s-1.9,3.6-1.6,5.3
					C398.4,469.8,399.7,471,401.1,470.8z"/>
			</g>
		</g>
		<g>
			<g>
				<path fill="#4D4741" d="M409.9,465.4c1-0.4,2.3-2.7,2.3-2.7s-2.5-0.8-3.6-0.3c-1.1,0.4-1.6,1.4-1.3,2.3
					C407.8,465.4,408.8,465.8,409.9,465.4z"/>
			</g>
		</g>
		<g>
			<g>
				<path fill="#4D4741" d="M403.2,462.4c0.4,1,1.4,1.6,2.3,1.3c0.8-0.4,1.2-1.5,0.8-2.4c-0.4-1.1-2.7-2.3-2.7-2.3
					S402.9,461.4,403.2,462.4z"/>
			</g>
		</g>
		<g>
			<g>
				<path fill="#4D4741" d="M398,474.7c-0.4-2.5-5-6.4-5-6.4s-2.9,5.3-2.4,7.8c0.4,2.5,2.5,4.3,4.6,3.9
					C397.2,479.5,398.5,477.1,398,474.7z"/>
			</g>
		</g>
		<g>
			<g>
				<path fill="#4D4741" d="M409.3,458.1c-2.2,5-4.5,9.9-7.2,14.6c-1.3,2.4-2.7,4.6-4.3,6.9c-0.8,1.1-1.6,2.2-2.5,3.2
					s-1.8,2-2.8,2.6l0.6,1c1.3-0.9,2.2-1.9,3-3c0.9-1.1,1.7-2.2,2.4-3.3c1.5-2.3,2.9-4.6,4.1-7.1
					C405.1,468.2,407.3,463.1,409.3,458.1z"/>
			</g>
		</g>
	</g>
</g>
<rect x="280.1" y="481" fill="#4D4741" width="35.5" height="63.6"/>
<g>
	<text transform="matrix(1 0 0 1 290.7857 575.7352)" fill="#4D4741" font-family="'Roboto', sans-serif" font-size="15.5119">IT</text>
</g>
<g>
	<g>
		<g>
			<g>
				<path fill="#4D4741" d="M300.8,481.7l-1.1-1.2c-0.8-1-1.5-2.3-2.1-3.6c-0.6-1.3-1-2.6-1.3-4c-0.5-2.7-0.2-5.5,1.2-8
					c0.4-0.6,0.8-1.1,1.3-1.8c0.5-0.6,1-1.4,1.3-2.2c0.8-1.5,1.3-3.1,1.3-4.8c0.1-3.4-1.5-6.4-3.9-8.5c2,2.4,3.1,5.5,2.6,8.4
					c-0.2,1.4-0.9,2.7-1.7,3.9c-0.4,0.6-0.9,1.2-1.4,1.6c-0.5,0.5-1.2,1.2-1.7,1.8c-2.2,2.7-3,6.4-2.8,9.8c0.1,1.7,0.4,3.4,0.9,5
					c0.4,1.2,0.8,2.3,1.3,3.4h-4.3v1.8h14.3v-1.8H301C300.9,481.9,300.9,481.9,300.8,481.7z"/>
			</g>
		</g>
		<g>
			<g>
				<path fill="#4D4741" d="M299.8,466.8c-1.9,1.9-2.2,4.8-0.6,6.3s4.3,1.3,6.3-0.6c1.9-1.9,2.6-8.2,2.6-8.2
					S301.7,464.8,299.8,466.8z"/>
			</g>
		</g>
		<g>
			<g>
				<path fill="#4D4741" d="M296.5,460.8c1.5-1.5,1.3-4.3-0.6-6.3c-1.9-1.9-8.2-2.6-8.2-2.6s0.6,6.3,2.6,8.2
					C292.1,462.1,294.9,462.4,296.5,460.8z"/>
			</g>
		</g>
	</g>
</g>
<rect x="32" y="543.9" fill="#D3CCAB" width="896" height="5"/>
<polygon fill="#DA6D5E" points="213.9,142.2 213.9,165.5 205.5,165.5 205.5,544.5 170,544.5 170,165.5 161.4,165.5 161.4,142.2 "/>
<g>
	<text transform="matrix(1 0 0 1 171.4473 575.7352)" fill="#DA6D5E" font-family="'Roboto', sans-serif" font-weight="700" font-size="15.5119">Love</text>
</g>
<g>
	<g>
		<g>
			<g>
				<path fill="#DA6D5E" d="M210.9,230.8c-1.4,1.9-2.8,3.8-4.2,5.9c0,0-7.1,15.8,5.4,23.7s36.3,22.8,36.3,22.8s19.7,13.6,29.4-1.8
					c0,0,6.7-10.6,12.3-22.6l48.5-16c0,0,17.1,28,8.9-6.2c-8.4-34.8-10.4-1.8-10.4-1.8l-41.2,9.4c2.5-7.9,2.9-14.6-1.3-17.2
					l-43.8-27.4c0,0-1.3-1.2-4.2-1c-1-0.8-1.9-1.6-3-2.3c-11.4-7.1-26.4-3.7-33.5,7.7C205,212.7,205.6,223.1,210.9,230.8z
					 M214.2,206.6c5.7-9.2,17.9-12,27.1-6.3c-5.9,2.7-14.8,9.7-27.4,26.5C210.4,220.7,210.1,212.9,214.2,206.6z"/>
			</g>
		</g>
	</g>
</g>
<circle fill="none" stroke="#DA6D5E" stroke-width="8" stroke-miterlimit="10" cx="205.2" cy="203.3" r="12.3"/>
<g>
	<path fill="#4D4741" d="M807.9,192.1c-1.2,0-2.1-0.3-2.7-0.8c-0.6-0.4-0.8-0.9-0.8-1.5c0-0.3,0.1-0.5,0.3-0.7s0.4-0.3,0.7-0.3
		c0.4,0,0.7,0.2,0.9,0.6c0.3,0.6,0.8,0.8,1.8,0.8c0.8,0,1.5-0.2,2.3-0.5c0.8-0.4,1.1-0.7,1.1-1.2c0-0.6-0.2-1-0.7-1.1
		c-0.3-0.1-1-0.2-2-0.2c-0.8,0-1.5-0.2-2.1-0.4c-0.8-0.4-1.3-0.9-1.2-1.6c0-0.9,0.5-1.7,1.4-2.4s2-1.1,3.1-1.1c0.4,0,1,0.1,1.7,0.3
		c0.8,0.3,1.2,0.5,1.2,0.9c0,0.2-0.1,0.4-0.2,0.6c-0.2,0.2-0.4,0.3-0.7,0.3c-0.2,0-0.5,0-1-0.1c-0.4-0.1-0.7-0.1-1-0.1
		c-0.6,0-1.1,0.1-1.7,0.4c-0.5,0.3-0.8,0.6-0.8,0.9c0,0.2,0.1,0.3,0.2,0.4c0.2,0.1,0.4,0.2,0.7,0.2c0.6,0,1.2,0.1,1.7,0.1
		c1,0.1,1.8,0.4,2.4,0.9c0.6,0.5,1,1.3,1,2.3c0,1.2-0.7,2.1-2,2.7C810.3,191.9,809.2,192.1,807.9,192.1z"/>
	<path fill="#4D4741" d="M816.5,187.9c-0.1,0-0.3,0-0.6,0c0,0.6,0,1.7,0,3.1c0,0.2-0.1,0.4-0.3,0.6s-0.4,0.3-0.6,0.3
		s-0.5-0.1-0.6-0.3c-0.2-0.2-0.3-0.4-0.3-0.6v-1.9c0-0.7,0-1.8,0.1-3.1c0.1-1.4,0.1-2.5,0.1-3.2c0-1.2,0.3-1.8,1-1.7
		c0.2,0,0.4-0.1,0.6-0.1s0.6,0,1,0c0.9,0,1.7,0.3,2.5,0.9c0.9,0.6,1.3,1.4,1.3,2.4c0,1.2-0.5,2.1-1.4,2.8
		C818.6,187.6,817.6,187.9,816.5,187.9z M816.8,182.8c-0.1,0-0.3,0-0.4,0c-0.1,0-0.2,0-0.3,0c0,0.2,0,0.5,0,1c0,0.5-0.1,1.3-0.1,2.4
		c0.2,0,0.4,0.1,0.5,0.1c0.7,0,1.3-0.2,1.8-0.5c0.5-0.4,0.8-0.8,0.8-1.4c0-0.4-0.2-0.7-0.7-1C817.8,182.9,817.4,182.8,816.8,182.8z"
		/>
	<path fill="#4D4741" d="M827.5,183.6c-0.2,0-0.8-0.1-1.8-0.2c-0.1,0.8-0.1,2-0.1,3.3l0,3.1c0.6,0,1.2,0,1.9,0
		c0.3,0,0.5,0.1,0.7,0.3c0.2,0.2,0.3,0.4,0.3,0.7s-0.1,0.5-0.3,0.7c-0.2,0.2-0.4,0.3-0.7,0.3c-0.3,0-0.7,0-1.2,0s-0.9,0-1.2,0
		c-0.3,0-0.8,0-1.4,0.1c-0.6,0.1-1.1,0.1-1.4,0.1c-0.3,0-0.5-0.1-0.7-0.3c-0.2-0.2-0.3-0.4-0.3-0.7s0.1-0.5,0.3-0.7s0.4-0.3,0.7-0.3
		c0.3,0,0.8,0,1.3-0.1c0-0.5,0-1.6,0-3.1c0-1.2,0-2.4,0.1-3.5l-1.5,0c-0.3,0-0.5-0.1-0.7-0.3c-0.2-0.2-0.3-0.4-0.3-0.7
		c0-0.3,0.1-0.5,0.3-0.7c0.2-0.2,0.4-0.2,0.6-0.3c0.4,0,1.1-0.1,2-0.1c0.9,0,2,0.1,3.3,0.3c0.5,0.1,0.8,0.4,0.8,0.9
		c0,0.3-0.1,0.5-0.3,0.7C827.9,183.6,827.7,183.6,827.5,183.6z"/>
	<path fill="#4D4741" d="M839.6,190c0,0.2,0,0.6-0.1,1.1c-0.1,0.6-0.4,0.9-1,0.9c-0.3,0-0.7-0.2-1.1-0.5c-1.8-1.6-3.7-3.8-5.9-6.7
		c0,1.2,0,1.9,0,2.2c0,0.4,0,0.9,0,1.6c0,0.7,0,1.3,0,1.6c0,1.3-0.3,2-1,2c-0.3,0-0.6-0.1-0.8-0.3c-0.2-0.2-0.3-0.4-0.3-0.7
		c0-0.2,0-0.5,0-0.8c0-0.4,0-0.6,0-0.8c0-0.3,0-0.7,0-1.2s0-0.9,0-1.2c0-0.3,0-0.7,0-1.3s0-1,0-1.3c0-0.3,0-0.7-0.1-1.2
		s-0.1-1-0.1-1.2s0.1-0.5,0.4-0.7c0.2-0.2,0.5-0.3,0.8-0.3c0.3,0,0.7,0.3,1.1,0.9c2.1,3,4.1,5.4,6.1,7.2c0-0.1,0-0.5,0-1
		c0-2.2,0-3.8-0.1-4.5c0-0.1,0-0.4-0.1-0.7c0-0.3-0.1-0.6-0.1-0.8c0-0.6,0.3-0.9,1-0.9c0.7,0,1.1,1.1,1.1,3.4c0,0.1,0,0.4,0,1.1
		C839.6,188,839.6,189.5,839.6,190z"/>
	<path fill="#4D4741" d="M850.1,192.1c-1.2,0-2.1-0.3-2.7-0.8c-0.6-0.4-0.8-0.9-0.8-1.5c0-0.3,0.1-0.5,0.3-0.7s0.4-0.3,0.7-0.3
		c0.4,0,0.7,0.2,0.9,0.6c0.3,0.6,0.8,0.8,1.8,0.8c0.8,0,1.5-0.2,2.3-0.5c0.8-0.4,1.1-0.7,1.1-1.2c0-0.6-0.2-1-0.7-1.1
		c-0.3-0.1-1-0.2-2-0.2c-0.8,0-1.5-0.2-2.1-0.4c-0.8-0.4-1.3-0.9-1.2-1.6c0-0.9,0.5-1.7,1.4-2.4s2-1.1,3.1-1.1c0.4,0,1,0.1,1.7,0.3
		c0.8,0.3,1.2,0.5,1.2,0.9c0,0.2-0.1,0.4-0.2,0.6c-0.2,0.2-0.4,0.3-0.7,0.3c-0.2,0-0.5,0-1-0.1c-0.4-0.1-0.7-0.1-1-0.1
		c-0.6,0-1.1,0.1-1.7,0.4c-0.5,0.3-0.8,0.6-0.8,0.9c0,0.2,0.1,0.3,0.2,0.4c0.2,0.1,0.4,0.2,0.7,0.2c0.6,0,1.2,0.1,1.7,0.1
		c1,0.1,1.8,0.4,2.4,0.9c0.6,0.5,1,1.3,1,2.3c0,1.2-0.7,2.1-2,2.7C852.6,191.9,851.4,192.1,850.1,192.1z"/>
	<path fill="#4D4741" d="M861.3,192.1c-1.3,0-2.5-0.4-3.4-1.2c-1-0.8-1.5-1.9-1.5-3.2c0-1.5,0.5-3,1.5-4.2c1.1-1.4,2.5-2.2,4.1-2.2
		c1.6,0,2.8,0.4,3.6,1.1s1.2,1.8,1.2,3.3c0,1.5-0.4,3-1.3,4.2C864.3,191.4,863,192.1,861.3,192.1z M861.9,183.2
		c-1,0-1.9,0.5-2.6,1.5c-0.7,0.9-1,1.9-1,3.1c0,0.8,0.3,1.4,0.9,1.8c0.6,0.5,1.3,0.7,2.1,0.7c1,0,1.8-0.5,2.5-1.5
		c0.6-0.9,0.9-1.9,0.9-3.1c0-1-0.2-1.6-0.6-2C863.7,183.4,862.9,183.2,861.9,183.2z"/>
	<path fill="#4D4741" d="M872.5,192.1c-1.3,0-2.5-0.4-3.4-1.2c-1-0.8-1.5-1.9-1.5-3.2c0-1.5,0.5-3,1.5-4.2c1.1-1.4,2.5-2.2,4.1-2.2
		c1.6,0,2.8,0.4,3.6,1.1s1.2,1.8,1.2,3.3c0,1.5-0.4,3-1.3,4.2C875.5,191.4,874.1,192.1,872.5,192.1z M873.1,183.2
		c-1,0-1.9,0.5-2.6,1.5c-0.7,0.9-1,1.9-1,3.1c0,0.8,0.3,1.4,0.9,1.8c0.6,0.5,1.3,0.7,2.1,0.7c1,0,1.8-0.5,2.5-1.5
		c0.6-0.9,0.9-1.9,0.9-3.1c0-1-0.2-1.6-0.6-2C874.9,183.4,874.1,183.2,873.1,183.2z"/>
	<path fill="#4D4741" d="M889.1,190c0,0.2,0,0.6-0.1,1.1c-0.1,0.6-0.4,0.9-1,0.9c-0.3,0-0.7-0.2-1.1-0.5c-1.8-1.6-3.7-3.8-5.9-6.7
		c0,1.2,0,1.9,0,2.2c0,0.4,0,0.9,0,1.6c0,0.7,0,1.3,0,1.6c0,1.3-0.3,2-1,2c-0.3,0-0.6-0.1-0.8-0.3c-0.2-0.2-0.3-0.4-0.3-0.7
		c0-0.2,0-0.5,0-0.8c0-0.4,0-0.6,0-0.8c0-0.3,0-0.7,0-1.2s0-0.9,0-1.2c0-0.3,0-0.7,0-1.3s0-1,0-1.3c0-0.3,0-0.7-0.1-1.2
		s-0.1-1-0.1-1.2s0.1-0.5,0.4-0.7c0.2-0.2,0.5-0.3,0.8-0.3c0.3,0,0.7,0.3,1.1,0.9c2.1,3,4.1,5.4,6.1,7.2c0-0.1,0-0.5,0-1
		c0-2.2,0-3.8-0.1-4.5c0-0.1,0-0.4-0.1-0.7c0-0.3-0.1-0.6-0.1-0.8c0-0.6,0.3-0.9,1-0.9c0.7,0,1.1,1.1,1.1,3.4c0,0.1,0,0.4,0,1.1
		C889.1,188,889.1,189.5,889.1,190z"/>
	<path fill="#4D4741" d="M892.7,192.4c-0.3,0-0.6-0.1-0.8-0.3s-0.3-0.4-0.3-0.6c0-0.2,0.1-0.5,0.3-0.7s0.5-0.3,0.8-0.3
		c0.3,0,0.6,0.1,0.8,0.3s0.3,0.4,0.3,0.7c0,0.2-0.1,0.5-0.3,0.6S893,192.4,892.7,192.4z"/>
	<path fill="#4D4741" d="M898.7,192.4c-0.3,0-0.6-0.1-0.8-0.3s-0.3-0.4-0.3-0.6c0-0.2,0.1-0.5,0.3-0.7s0.5-0.3,0.8-0.3
		c0.3,0,0.6,0.1,0.8,0.3s0.3,0.4,0.3,0.7c0,0.2-0.1,0.5-0.3,0.6S899,192.4,898.7,192.4z"/>
	<path fill="#4D4741" d="M904.8,192.4c-0.3,0-0.6-0.1-0.8-0.3s-0.3-0.4-0.3-0.6c0-0.2,0.1-0.5,0.3-0.7s0.5-0.3,0.8-0.3
		c0.3,0,0.6,0.1,0.8,0.3s0.3,0.4,0.3,0.7c0,0.2-0.1,0.5-0.3,0.6S905.1,192.4,904.8,192.4z"/>
</g>
<path fill="none" stroke="#4D4741" stroke-width="2" stroke-miterlimit="10" d="M835.7,204.3c-18.3,11-10.8,22-29.1,32.9
	c-1.6,1.1-3.2,2.2-4.8,3.4c-7.9,4.5-15.8,9-23.7,13.5"/>
<g>
	<path fill="#4D4741" d="M780.5,241.2c0.1,0.8,0.2,1.5,0.3,2.3c0.1,0.8,0.1,1.5,0.1,2.2c0,0.2,0,0.4-0.1,0.5
		c-0.1,0.2-0.2,0.3-0.2,0.5l-0.3,1l-0.7,1.9l-2.7,7.7l-1.9-2.7l9.1,0.1l2.3,0l1.1,0c0.4,0,0.8,0,1.1,0c0.4,0.1,0.8,0.3,1.1,0.4
		c0.4,0.2,0.8,0.3,1.1,0.5c0.8,0.4,1.5,0.7,2.3,1.2c-0.8,0.4-1.5,0.8-2.3,1.1c-0.4,0.2-0.8,0.3-1.1,0.5c-0.4,0.1-0.8,0.4-1.1,0.4
		c-0.4-0.1-0.8-0.1-1.1-0.1l-1.1,0l-2.3,0l-9.1-0.1l-2.8,0l0.9-2.6l2.7-7.7l0.7-1.9l0.3-1c0.1-0.2,0.1-0.3,0.1-0.5
		c0-0.2,0.2-0.3,0.3-0.4c0.5-0.5,1-1.1,1.5-1.6C779.4,242.3,780,241.7,780.5,241.2z"/>
</g>
</svg>
