<svg version="1.1" id="Layer_1" xmlns="http://www.w3.org/2000/svg" xmlns:xlink="http://www.w3.org/1999/xlink" x="0px" y="0px"
	 viewBox="0 0 1213 550.8" enable-background="new 0 0 1213 550.8" xml:space="preserve">
<g id="interested-in-dancing">
	<rect x="1068" y="428" fill="#4D4741" width="48" height="86"/>
	<g>
		<text transform="matrix(1 0 0 1 1059.5273 543)" fill="#4D4741" font-family="Segoe UI, Calibri, Arial, san-serif" font-size="21">Dancing</text>
	</g>
	<g>
		<g>
			<g>
				<g>
					<path fill="#4D4741" d="M1096.1,429l-1.5-1.6c-1-1.3-2-3.1-2.8-4.8c-0.8-1.7-1.4-3.5-1.8-5.4c-0.7-3.7-0.3-7.5,1.6-10.8
						c0.5-0.9,1-1.5,1.7-2.4c0.7-0.9,1.3-1.9,1.8-2.9c1-2,1.7-4.2,1.8-6.5c0.2-4.6-2.1-8.7-5.2-11.5c2.7,3.2,4.2,7.5,3.5,11.4
						c-0.3,1.9-1.2,3.7-2.3,5.3c-0.6,0.8-1.2,1.6-1.9,2.2c-0.7,0.7-1.6,1.6-2.3,2.5c-2.9,3.7-4.1,8.6-3.8,13.3
						c0.1,2.3,0.6,4.6,1.2,6.8c0.5,1.6,1,3.1,1.7,4.6h-5.8v2.4h19.3v-2.4h-5C1096.2,429.3,1096.2,429.2,1096.1,429z"/>
				</g>
			</g>
			<g>
				<g>
					<path fill="#4D4741" d="M1094.7,408.7c-2.6,2.6-3,6.4-0.9,8.5c2.1,2.1,5.9,1.7,8.5-0.9c2.6-2.6,3.5-11.1,3.5-11.1
						S1097.3,406.1,1094.7,408.7z"/>
				</g>
			</g>
			<g>
				<g>
					<path fill="#4D4741" d="M1090.2,400.7c2.1-2.1,1.7-5.9-0.9-8.5c-2.6-2.6-11.1-3.5-11.1-3.5s0.9,8.5,3.5,11.1
						C1084.3,402.4,1088.1,402.8,1090.2,400.7z"/>
				</g>
			</g>
		</g>
	</g>
</g>
<g id="interested-in-music">
	<rect x="930" y="428" fill="#4D4741" width="48" height="86"/>
	<g>
		<text transform="matrix(1 0 0 1 929 543)" fill="#4D4741" font-family="Segoe UI, Calibri, Arial, san-serif" font-size="21">Music</text>
	</g>
	<g>
		<g>
			<g>
				<g>
					<path fill="#4D4741" d="M958.1,429l-1.5-1.6c-1-1.3-2-3.1-2.8-4.8c-0.8-1.7-1.4-3.5-1.8-5.4c-0.7-3.7-0.3-7.5,1.6-10.8
						c0.5-0.9,1-1.5,1.7-2.4c0.7-0.9,1.3-1.9,1.8-2.9c1-2,1.7-4.2,1.8-6.5c0.2-4.6-2.1-8.7-5.2-11.5c2.7,3.2,4.2,7.5,3.5,11.4
						c-0.3,1.9-1.2,3.7-2.3,5.3c-0.6,0.8-1.2,1.6-1.9,2.2c-0.7,0.7-1.6,1.6-2.3,2.5c-2.9,3.7-4.1,8.6-3.8,13.3
						c0.1,2.3,0.6,4.6,1.2,6.8c0.5,1.6,1,3.1,1.7,4.6H944v2.4h19.3v-2.4h-5C958.2,429.3,958.2,429.2,958.1,429z"/>
				</g>
			</g>
			<g>
				<g>
					<path fill="#4D4741" d="M956.7,408.7c-2.6,2.6-3,6.4-0.9,8.5c2.1,2.1,5.9,1.7,8.5-0.9c2.6-2.6,3.5-11.1,3.5-11.1
						S959.3,406.1,956.7,408.7z"/>
				</g>
			</g>
			<g>
				<g>
					<path fill="#4D4741" d="M952.2,400.7c2.1-2.1,1.7-5.9-0.9-8.5c-2.6-2.6-11.1-3.5-11.1-3.5s0.9,8.5,3.5,11.1
						C946.3,402.4,950.1,402.8,952.2,400.7z"/>
				</g>
			</g>
		</g>
	</g>
</g>
<g id="interested-in-drawing">
	<rect x="792" y="428" fill="#4D4741" width="48" height="86"/>
	<g>
		<text transform="matrix(1 0 0 1 782.1064 543)" fill="#4D4741" font-family="Segoe UI, Calibri, Arial, san-serif" font-size="21">Drawing</text>
	</g>
	<g>
		<g>
			<g>
				<g>
					<path fill="#4D4741" d="M824.4,429l-1.5-1.6c-1-1.3-2-3.1-2.8-4.8c-0.8-1.7-1.4-3.5-1.8-5.4c-0.7-3.7-0.3-7.5,1.6-10.8
						c0.5-0.9,1-1.5,1.7-2.4c0.7-0.9,1.3-1.9,1.8-2.9c1-2,1.7-4.2,1.8-6.5c0.2-4.6-2.1-8.7-5.2-11.5c2.7,3.2,4.2,7.5,3.5,11.4
						c-0.3,1.9-1.2,3.7-2.3,5.3c-0.6,0.8-1.2,1.6-1.9,2.2c-0.7,0.7-1.6,1.6-2.3,2.5c-2.9,3.7-4.1,8.6-3.8,13.3
						c0.1,2.3,0.6,4.6,1.2,6.8c0.5,1.6,1,3.1,1.7,4.6h-5.8v2.4h19.3v-2.4h-5C824.6,429.3,824.5,429.2,824.4,429z"/>
				</g>
			</g>
			<g>
				<g>
					<path fill="#4D4741" d="M823.1,408.7c-2.6,2.6-3,6.4-0.9,8.5c2.1,2.1,5.9,1.7,8.5-0.9c2.6-2.6,3.5-11.1,3.5-11.1
						S825.7,406.1,823.1,408.7z"/>
				</g>
			</g>
			<g>
				<g>
					<path fill="#4D4741" d="M818.5,400.7c2.1-2.1,1.7-5.9-0.9-8.5c-2.6-2.6-11.1-3.5-11.1-3.5s0.9,8.5,3.5,11.1
						C812.6,402.4,816.4,402.8,818.5,400.7z"/>
				</g>
			</g>
		</g>
	</g>
</g>
<g id="interested-in-bsps">
	<rect x="654" y="428" fill="#4D4741" width="48" height="86"/>
	<g>
		<text transform="matrix(1 0 0 1 659.1064 543)" fill="#4D4741" font-family="Segoe UI, Calibri, Arial, san-serif" font-size="21">BSPs</text>
	</g>
	<g>
		<g>
			<g>
				<g>
					<path fill="#4D4741" d="M684.4,429l-1.5-1.6c-1-1.3-2-3.1-2.8-4.8c-0.8-1.7-1.4-3.5-1.8-5.4c-0.7-3.7-0.3-7.5,1.6-10.8
						c0.5-0.9,1-1.5,1.7-2.4c0.7-0.9,1.3-1.9,1.8-2.9c1-2,1.7-4.2,1.8-6.5c0.2-4.6-2.1-8.7-5.2-11.5c2.7,3.2,4.2,7.5,3.5,11.4
						c-0.3,1.9-1.2,3.7-2.3,5.3c-0.6,0.8-1.2,1.6-1.9,2.2c-0.7,0.7-1.6,1.6-2.3,2.5c-2.9,3.7-4.1,8.6-3.8,13.3
						c0.1,2.3,0.6,4.6,1.2,6.8c0.5,1.6,1,3.1,1.7,4.6h-5.8v2.4h19.3v-2.4h-5C684.6,429.3,684.5,429.2,684.4,429z"/>
				</g>
			</g>
			<g>
				<g>
					<path fill="#4D4741" d="M683.1,408.7c-2.6,2.6-3,6.4-0.9,8.5c2.1,2.1,5.9,1.7,8.5-0.9c2.6-2.6,3.5-11.1,3.5-11.1
						S685.7,406.1,683.1,408.7z"/>
				</g>
			</g>
			<g>
				<g>
					<path fill="#4D4741" d="M678.5,400.7c2.1-2.1,1.7-5.9-0.9-8.5c-2.6-2.6-11.1-3.5-11.1-3.5s0.9,8.5,3.5,11.1
						C672.6,402.4,676.4,402.8,678.5,400.7z"/>
				</g>
			</g>
		</g>
	</g>
</g>
<g id="interested-in-astrophysics">
	<rect x="516" y="428" fill="#4D4741" width="48" height="86"/>
	<g>
		<text transform="matrix(1 0 0 1 490.7896 543)" fill="#4D4741" font-family="Segoe UI, Calibri, Arial, san-serif" font-size="21">Astrophysics</text>
	</g>
	<g>
		<g>
			<g>
				<g>
					<path fill="#4D4741" d="M544.1,429l-1.5-1.6c-1-1.3-2-3.1-2.8-4.8c-0.8-1.7-1.4-3.5-1.8-5.4c-0.7-3.7-0.3-7.5,1.6-10.8
						c0.5-0.9,1-1.5,1.7-2.4c0.7-0.9,1.3-1.9,1.8-2.9c1-2,1.7-4.2,1.8-6.5c0.2-4.6-2.1-8.7-5.2-11.5c2.7,3.2,4.2,7.5,3.5,11.4
						c-0.3,1.9-1.2,3.7-2.3,5.3c-0.6,0.8-1.2,1.6-1.9,2.2c-0.7,0.7-1.6,1.6-2.3,2.5c-2.9,3.7-4.1,8.6-3.8,13.3
						c0.1,2.3,0.6,4.6,1.2,6.8c0.5,1.6,1,3.1,1.7,4.6H530v2.4h19.3v-2.4h-5C544.2,429.3,544.2,429.2,544.1,429z"/>
				</g>
			</g>
			<g>
				<g>
					<path fill="#4D4741" d="M542.7,408.7c-2.6,2.6-3,6.4-0.9,8.5c2.1,2.1,5.9,1.7,8.5-0.9c2.6-2.6,3.5-11.1,3.5-11.1
						S545.3,406.1,542.7,408.7z"/>
				</g>
			</g>
			<g>
				<g>
					<path fill="#4D4741" d="M538.2,400.7c2.1-2.1,1.7-5.9-0.9-8.5c-2.6-2.6-11.1-3.5-11.1-3.5s0.9,8.5,3.5,11.1
						C532.3,402.4,536.1,402.8,538.2,400.7z"/>
				</g>
			</g>
		</g>
	</g>
</g>
<g id="interested-in-design">
	<rect x="378" y="428" fill="#4D4741" width="48" height="86"/>
	<g>
		<text transform="matrix(1 0 0 1 374.2192 543)" fill="#4D4741" font-family="Segoe UI, Calibri, Arial, san-serif" font-size="21">Design</text>
	</g>
	<g>
		<g>
			<g>
				<g>
					<path fill="#4D4741" d="M438.7,423.1c-3.4,0.6-5.8,3.4-5.3,6.2c0.5,2.8,3.7,4.5,7.1,3.9c3.4-0.6,8.7-6.8,8.7-6.8
						S442.1,422.5,438.7,423.1z"/>
				</g>
			</g>
			<g>
				<g>
					<path fill="#4D4741" d="M445.4,418.5c2.3-0.4,5.9-4.6,5.9-4.6s-4.9-2.6-7.2-2.2c-2.3,0.4-3.9,2.3-3.6,4.2
						C440.9,417.8,443.1,419,445.4,418.5z"/>
				</g>
			</g>
			<g>
				<g>
					<path fill="#4D4741" d="M436,414.1c1.9-0.4,3.1-2.5,2.6-4.8c-0.4-2.3-4.6-5.9-4.6-5.9s-2.6,4.9-2.2,7.2
						C432.3,412.8,434.1,414.4,436,414.1z"/>
				</g>
			</g>
			<g>
				<g>
					<path fill="#4D4741" d="M447.9,406.8c1.4-0.6,3.1-3.6,3.1-3.6s-3.4-1-4.8-0.5c-1.4,0.6-2.2,1.9-1.7,3.1
						C445,406.9,446.5,407.4,447.9,406.8z"/>
				</g>
			</g>
			<g>
				<g>
					<path fill="#4D4741" d="M438.9,402.9c0.6,1.4,1.9,2.2,3.1,1.7c1.1-0.5,1.6-2,1-3.3c-0.6-1.4-3.6-3.1-3.6-3.1
						S438.4,401.5,438.9,402.9z"/>
				</g>
			</g>
			<g>
				<g>
					<path fill="#4D4741" d="M431.8,419.4c-0.6-3.4-6.8-8.7-6.8-8.7s-3.9,7.2-3.2,10.6c0.6,3.4,3.4,5.8,6.2,5.3
						C430.7,426,432.5,422.8,431.8,419.4z"/>
				</g>
			</g>
			<g>
				<g>
					<path fill="#4D4741" d="M447.1,397c-3,6.7-6.2,13.4-9.8,19.8c-1.8,3.2-3.7,6.3-5.9,9.3c-1.1,1.5-2.2,2.9-3.4,4.3
						c-1.2,1.3-2.5,2.7-3.8,3.5l0.8,1.4c1.8-1.2,2.9-2.6,4.1-4.1c1.2-1.5,2.3-3,3.3-4.5c2-3.1,3.9-6.3,5.6-9.6
						C441.4,410.6,444.4,403.8,447.1,397z"/>
				</g>
			</g>
		</g>
	</g>
</g>
<g id="interested-in-it">
	<rect x="240" y="428" fill="#4D4741" width="48" height="86"/>
	<g>
		<text transform="matrix(1 0 0 1 257.2192 543)" fill="#4D4741" font-family="Segoe UI, Calibri, Arial, san-serif" font-size="21">IT</text>
	</g>
	<g>
		<g>
			<g>
				<g>
					<path fill="#4D4741" d="M268.1,429l-1.5-1.6c-1-1.3-2-3.1-2.8-4.8c-0.8-1.7-1.4-3.5-1.8-5.4c-0.7-3.7-0.3-7.5,1.6-10.8
						c0.5-0.9,1-1.5,1.7-2.4c0.7-0.9,1.3-1.9,1.8-2.9c1-2,1.7-4.2,1.8-6.5c0.2-4.6-2.1-8.7-5.2-11.5c2.7,3.2,4.2,7.5,3.5,11.4
						c-0.3,1.9-1.2,3.7-2.3,5.3c-0.6,0.8-1.2,1.6-1.9,2.2c-0.7,0.7-1.6,1.6-2.3,2.5c-2.9,3.7-4.1,8.6-3.8,13.3
						c0.1,2.3,0.6,4.6,1.2,6.8c0.5,1.6,1,3.1,1.7,4.6H254v2.4h19.3v-2.4h-5C268.2,429.3,268.2,429.2,268.1,429z"/>
				</g>
			</g>
			<g>
				<g>
					<path fill="#4D4741" d="M266.7,408.7c-2.6,2.6-3,6.4-0.9,8.5c2.1,2.1,5.9,1.7,8.5-0.9c2.6-2.6,3.5-11.1,3.5-11.1
						S269.3,406.1,266.7,408.7z"/>
				</g>
			</g>
			<g>
				<g>
					<path fill="#4D4741" d="M262.2,400.7c2.1-2.1,1.7-5.9-0.9-8.5c-2.6-2.6-11.1-3.5-11.1-3.5s0.9,8.5,3.5,11.1
						C256.3,402.4,260.1,402.8,262.2,400.7z"/>
				</g>
			</g>
		</g>
	</g>
</g>
<g id="interested-in-love">
	<rect x="102" fill="#DA6D5E" width="48" height="514"/>
	<g>
		<text transform="matrix(1 0 0 1 104 543)" fill="#DA6D5E" font-family="Segoe UI, Calibri, Arial, san-serif" font-size="21" font-weight="bold">Love</text>
	</g>
	<g>
		<g>
			<g>
				<g>
					<path fill="#DA6D5E" d="M157.4,89.3c-1.9,2.6-3.8,5.2-5.7,8.1c0,0-9.7,21.3,7.3,32c17,10.7,49.2,30.9,49.2,30.9
						s26.6,18.5,39.8-2.4c0,0,9.1-14.4,16.7-30.6l65.7-21.6c0,0,23.2,37.9,12-8.3C331,50.3,328.3,95,328.3,95l-55.8,12.8
						c3.3-10.7,3.9-19.8-1.7-23.3l-59.2-37.1c0,0-1.7-1.6-5.7-1.4c-1.3-1.1-2.6-2.2-4.1-3.1c-15.4-9.6-35.7-5-45.3,10.4
						C149.4,64.7,150.2,78.9,157.4,89.3z M161.9,56.5c7.8-12.4,24.3-16.2,36.7-8.5c-8,3.7-20,13.2-37.1,35.9
						C156.7,75.6,156.4,65.1,161.9,56.5z"/>
				</g>
			</g>
		</g>
	</g>
	<circle fill="none" stroke="#DA6D5E" stroke-width="8" stroke-miterlimit="10" cx="149.7" cy="52" r="16.7"/>
</g>
<line fill="none" stroke="#4D4741" stroke-width="2" stroke-miterlimit="10" x1="0" y1="515" x2="1213" y2="515"/>
</svg>
