<svg id="logo" version="1.1" id="Layer_1" xmlns="http://www.w3.org/2000/svg" xmlns:xlink="http://www.w3.org/1999/xlink" x="0px" y="0px"
	 viewBox="0 0 300 300" enable-background="new 0 0 300 300" xml:space="preserve">
<g>
	<g>
		<g>
			<path fill="#FFFFFF" d="M300,300H0V0h300V300z M4.9,295.1h290.2V4.9H4.9V295.1z"/>
		</g>
	</g>
	<g>
		<path fill="#FFFFFF" d="M120.2,41.7v70.9c6.9-4.1,13.9-7.2,21-9.2s14.2-3,21.5-3c11.5,0,21.7,1.9,30.7,5.8
			c9,3.9,16.4,10,22.3,18.4c5.9,8.4,8.8,18.9,8.8,31.7v62.4c8.4,0,13.9,0.8,16.5,2.4c5.2,3.4,7.8,8.1,7.8,14.3c0,4.9-1.7,8.8-5,11.9
			c-3.4,3.1-9,4.6-17,4.6h-38c-7.9,0-13.5-1.5-17-4.6c-3.4-3.1-5.1-7.1-5.1-12.1c0-6.1,2.6-10.8,7.8-14.1c2.7-1.7,8.2-2.5,16.6-2.4
			v-60.2c0-8.5-2-14.5-5.8-18c-5.1-4.6-12.6-7-22.6-7c-7.3,0-13.9,1.4-19.5,4.3c-5.7,2.9-13.3,9.1-23,18.6v62.3
			c8.5,0,14.1,0.8,16.6,2.4c5.3,3.4,7.9,8.1,7.9,14.3c0,4.9-1.7,8.8-5.1,11.9c-3.4,3.1-9.1,4.6-17.1,4.6H84.7
			c-8,0-13.7-1.5-17.1-4.6c-3.4-3.1-5.1-7.1-5.1-12.1c0-6.1,2.6-10.8,8-14.1c2.6-1.7,8.1-2.5,16.5-2.4V74.9h-5.7
			c-8,0-13.7-1.5-17.1-4.6c-3.4-3.1-5.1-7.1-5.1-12.1c0-4.9,1.7-8.8,5.1-11.9c3.4-3.1,9.1-4.6,17.1-4.6H120.2z"/>
	</g>
</g>
</svg>
